<?xml version="1.0" standalone="no"?>
<!DOCTYPE svg PUBLIC "-//W3C//DTD SVG 1.1//EN" "http://www.w3.org/Graphics/SVG/1.1/DTD/svg11.dtd" >
<svg xmlns="http://www.w3.org/2000/svg">
<metadata>Generated by IcoMoon</metadata>
<defs>
<font id="icomoon" horiz-adv-x="1024">
<font-face units-per-em="1024" ascent="960" descent="-64" />
<missing-glyph horiz-adv-x="1024" />
<glyph unicode="&#x20;" horiz-adv-x="512" d="" />
<glyph unicode="&#xe900;" glyph-name="fitness" d="M911.54 652.585c-0.134 0.001-0.297 0.002-0.46 0.002-10.686 0-21.018-1.495-30.807-4.291l0.791 0.192c-12.575 49.39-56.656 85.337-109.136 85.337-62.066 0-112.386-50.279-112.452-112.327v-80.875h-294.959v80.702c-0.067 62.053-50.387 112.335-112.452 112.335-52.476 0-96.56-35.947-108.964-84.559l-0.17-0.777c-9.11 2.653-19.574 4.184-30.396 4.184-62.108 0-112.465-50.314-112.535-112.41v-184.355c0.037-62.103 50.386-112.428 112.495-112.428 10.835 0 21.318 1.531 31.235 4.392l-0.795-0.196c12.575-49.39 56.656-85.337 109.136-85.337 62.066 0 112.386 50.279 112.452 112.327v81.12h294.959v-80.866c0.067-62.053 50.387-112.335 112.452-112.335 52.476 0 96.56 35.947 108.964 84.559l0.17 0.777c9.119-2.665 19.602-4.195 30.437-4.195 62.104 0 112.458 50.331 112.495 112.428v184.35c-0.164 61.997-50.439 112.2-112.446 112.249h-0.006zM139.45 301.582c-7.881-4.082-17.201-6.475-27.083-6.475-0.044 0-0.082 0-0.127 0h0.009c-33.633 0.026-60.892 27.285-60.917 60.914v184.349c0.163 33.468 27.275 60.554 60.744 60.673h0.009c0.031 0 0.071 0 0.11 0 9.886 0 19.211-2.392 27.43-6.631l-0.334 0.156zM312.82 274.749c-0.884-32.956-27.806-59.335-60.896-59.335s-60.015 26.379-60.894 59.257l-0.002 0.081v346.574c0.884 32.956 27.806 59.335 60.896 59.335s60.015-26.379 60.894-59.257l0.002-0.081zM659.473 407.151h-294.959v81.933h294.959zM832.763 609.033v-334.284c-0.884-32.956-27.806-59.335-60.896-59.335s-60.015 26.379-60.894 59.257l-0.002 0.081v346.574c0.884 32.956 27.806 59.335 60.896 59.335s60.015-26.379 60.894-59.257l0.002-0.081v-12.29zM972.379 355.988c-0.026-33.633-27.285-60.892-60.914-60.917h-0.003c-0.035 0-0.080 0-0.117 0-9.881 0-19.202 2.392-27.416 6.631l0.334-0.156v293.033c7.885 4.082 17.21 6.475 27.091 6.475 0.053 0 0.105 0 0.158 0h-0.009c33.602-0.045 60.831-27.272 60.874-60.872v-184.352zM804.006 619.52v-9.957c0-14.229-11.535-25.769-25.769-25.769s-25.769 11.535-25.769 25.769v0 9.957c0 14.229 11.535 25.769 25.769 25.769s25.769-11.535 25.769-25.769v0z" />
<glyph unicode="&#xe901;" glyph-name="c_1b" d="M507.904 763.392c49.807 0 90.112-40.305 90.112-90.112s-40.305-90.112-90.112-90.112c-49.807 0-90.112 40.305-90.112 90.112s40.305 90.112 90.112 90.112zM458.752 673.28c0-27.116 22.036-49.152 49.152-49.152s49.152 22.036 49.152 49.152c0 27.116-22.036 49.152-49.152 49.152s-49.152-22.036-49.152-49.152zM507.904 321.024c-17.285-62.259-16.384-278.528-16.384-278.528-37.11-34.079-49.152 24.576-49.152 24.576-18.104 47.923-16.384 147.456-16.384 147.456 0.737 73.564 16.384 278.528 16.384 278.528l-16.384 49.152c-3.195-23.183-24.576-180.224-24.576-180.224-27.853-109.199-8.192-303.104-8.192-303.104 16.056-61.768 57.344-73.728 57.344-73.728 67.174-21.135 81.92 49.152 81.92 49.152l-8.192 196.608zM491.602 228.618l-8.274-198.083c0 0 14.909-70.779 82.821-49.48 0 0 41.779 12.042 57.917 74.301 0 0 19.907 195.379-8.274 305.316 0 0-21.627 158.188-24.822 181.535l-16.548-49.48c0 0 15.811-206.438 16.548-280.576 0 0 1.72-100.27-16.548-148.521 0 0-12.124-59.146-49.644-24.74 0 0 0.901 217.825-16.548 280.576zM491.52 591.36l8.192-32.768c30.31-1.147 65.126 8.602 65.126 8.602 35.963-1.72 40.632-48.579 40.632-48.579 1.556-33.178 32.522-129.516 32.522-129.516 21.463-49.316 0-64.717 0-64.717-24.412-16.302-40.632 48.579-40.632 48.579l-8.11-48.579c23.265-52.675 66.109-44.319 66.109-44.319 66.929 13.599 24.576 114.688 24.576 114.688-18.76 52.92-40.96 139.264-40.96 139.264-6.799 60.129-57.344 73.728-57.344 73.728-31.621-6.308-90.112-16.384-90.112-16.384zM424.509 607.744c0 0-51.446-13.599-58.327-73.646 0 0-22.61-86.18-41.615-139.018 0 0-43.008-100.925 24.986-114.524 0 0 43.581-8.356 67.174 44.319l-8.274 48.497c0 0-16.548-64.717-41.288-48.497 0 0-21.791 15.401 0 64.635 0 0 31.457 96.174 33.014 129.27 0 0 4.751 46.776 41.288 48.497 0 0 35.389-9.748 66.191-8.602l8.356 32.686c0 0-59.474 10.076-91.587 16.384z" />
<glyph unicode="&#xe902;" glyph-name="c_2a" d="M164.495 418.836c50.135 0 90.767-40.223 90.767-89.866s-40.632-89.866-90.767-89.866c-50.135 0-90.767 40.223-90.767 89.866s40.632 89.866 90.767 89.866zM114.934 328.806c0-27.116 22.2-48.988 49.562-48.988s49.562 21.955 49.562 48.988c0 27.116-22.2 48.988-49.562 48.988s-49.562-21.955-49.562-48.988zM271.647 337.080c0 0 20.234 38.502 129.761 49.48 138.609 13.926 114.688 24.576 114.688 24.576l8.52 60.047c-7.7 105.841 26.378 241.336 26.378 241.336 27.279 41.37 43.909-6.39 43.909-6.39-0.737-47.514-5.161-155.812-5.161-155.812 6.717-58.163 12.78-148.521 8.192-196.608-3.031-32.276-62.423-8.602-62.423-8.602l54.231-56.934c68.895-19.907 49.152 131.072 49.152 131.072-3.277 125.174-0.082 280.494-0.082 280.494-1.475 71.762-53.248 79.708-53.248 79.708-70.697 4.833-86.671-62.505-86.671-62.505l-23.921-264.929c0 0-12.288-18.268-120.996-33.341-67.666-9.421-115.507-48.988-115.507-48.988 9.175-55.46 33.014-32.686 33.014-32.686zM246.006 272.609c0 0 14.5-42.271 191.529-40.468 0 0 202.834-18.514 168.509 80.937 0 0 12.616 55.951-114.934 56.607 0 0-157.45-4.014-168.509-24.248l45.957-16.22c0 0 130.58 0.41 160.891-8.11 0 0 40.878 1.884 30.638-32.358 0 0-47.022-22.282-122.552-8.11 0 0-151.716-13.926-168.509 32.358 0 0-16.056 83.231-30.638 24.248 0 0-9.585-16.138-7.7-32.358 1.884-16.138 15.319-32.358 15.319-32.358z" />
<glyph unicode="&#xe903;" glyph-name="c_2b" d="M164.495 418.836c50.135 0 90.767-40.223 90.767-89.866s-40.632-89.866-90.767-89.866c-50.135 0-90.767 40.223-90.767 89.866s40.632 89.866 90.767 89.866zM114.934 328.806c0-27.116 22.2-48.988 49.562-48.988s49.562 21.955 49.562 48.988c0 27.116-22.2 48.988-49.562 48.988s-49.562-21.955-49.562-48.988zM271.647 337.080c0 0 20.152 39.813 129.761 49.48 114.278 10.076 172.032 8.192 172.032 8.192l32.768 24.576c0 0-107.561 26.051-252.068-0.573-67.174-12.37-115.507-48.988-115.507-48.988 9.175-55.46 33.014-32.686 33.014-32.686zM442.368 402.944l200.458-22.61c105.431 7.7 240.517-26.296 240.517-26.296 41.206-27.116-6.308-43.745-6.308-43.745-47.35 0.737-155.238 5.161-155.238 5.161-33.178-3.85-131.891-10.813-131.891-10.813l1.311-38.175c124.764 3.277 279.511 0.082 279.511 0.082 71.516 1.475 79.462 53.002 79.462 53.002 4.833 70.369-62.341 86.262-62.341 86.262l-412.631 21.709zM246.006 272.609c0 0 14.5-42.271 191.529-40.468 0 0 202.834-18.514 168.509 80.937 0 0 12.616 55.951-114.934 56.607 0 0-157.45-4.014-168.509-24.248l45.957-16.22c0 0 130.58 0.41 160.891-8.11 0 0 40.878 1.884 30.638-32.358 0 0-47.022-22.282-122.552-8.11 0 0-151.716-13.926-168.509 32.358 0 0-16.056 83.231-30.638 24.248 0 0-9.585-16.138-7.7-32.358 1.884-16.138 15.319-32.358 15.319-32.358z" />
<glyph unicode="&#xe904;" glyph-name="c_3a" d="M524.288 648.704c49.807 0 90.112-40.305 90.112-90.112s-40.305-90.112-90.112-90.112c-49.807 0-90.112 40.305-90.112 90.112s40.305 90.112 90.112 90.112zM475.136 558.592c0-27.116 22.036-49.152 49.152-49.152s49.152 22.036 49.152 49.152c0 27.116-22.036 49.152-49.152 49.152s-49.152-22.036-49.152-49.152zM627.671 459.878c0 0 26.296-36.946 52.265-73.318 19.907-27.853 40.96-65.536 40.96-65.536 19.661-74.793-65.536-90.112-65.536-90.112-31.212-8.356-24.576-40.96-24.576-40.96l24.576-106.496c-29.164-57.754-57.344 0-57.344 0-34.57 106.496-32.768 139.264-32.768 139.264 17.695 46.203 65.536 81.92 65.536 81.92s10.65 16.384-8.192 16.384c-12.78 0-24.576-8.192-24.576-8.192-51.446-24.084-73.728-73.728-73.728-73.728-13.353-56.607 49.152-188.416 49.152-188.416 57.917-66.273 106.496-16.384 106.496-16.384 28.672 34.734-16.384 155.648-16.384 155.648l65.536 40.96c59.392 43.418 8.192 131.072 8.192 131.072-29.409 50.217-98.058 124.109-98.058 124.109zM598.016 296.448l-90.112-24.576c-27.935-3.277-32.768-40.96-32.768-40.96l16.384-90.112c-32.44-46.121-40.96 8.192-40.96 8.192-16.384 96.174-18.924 119.849-18.924 119.849 21.053 37.601 92.652 60.375 92.652 60.375l24.576 24.576-65.536-16.384c-50.872-11.633-84.951-49.316-84.951-49.316-18.678-47.104 19.415-171.868 19.415-171.868 41.533-64.471 98.304-24.576 98.304-24.576 29.082 26.296-3.85 136.479-3.85 136.479l61.194 27.361zM475.136 501.248l-16.384-32.768 24.576-24.576 24.576 40.96zM401.408 468.48c0 0-25.641-34.324-24.576-98.304 0 0 9.257-73.646 81.92-49.152l-8.192 32.768c0 0-52.675-26.624-32.768 65.536zM589.824 509.44c51.282-39.567-32.768-122.88-32.768-122.88-30.474-49.48-68.895-45.384-68.895-45.384-41.943 30.392-53.166 70.369-53.166 70.369-18.35 55.296 26.542 17.613 26.542 17.613 20.562-23.101 38.175-34.324 38.175-34.324 22.692 4.997 31.539 15.892 41.533 34.324 41.943 77.496 8.847 79.135 8.847 79.135-34.243-34.161-50.463-64.307-50.463-64.307-31.13 38.093-55.869 37.929-55.869 37.929-102.318 17.613-17.695-131.891-17.695-131.891 55.050-83.558 115.098-26.378 115.098-26.378 33.505 10.486 79.708 96.748 79.708 96.748 62.996 94.044-14.746 121.897-14.746 121.897z" />
<glyph unicode="&#xe905;" glyph-name="c_3b" d="M524.288 845.312c49.807 0 90.112-40.305 90.112-90.112s-40.305-90.112-90.112-90.112c-49.807 0-90.112 40.305-90.112 90.112s40.305 90.112 90.112 90.112zM475.136 755.2c0-27.116 22.036-49.152 49.152-49.152s49.152 22.036 49.152 49.152c0 27.116-22.036 49.152-49.152 49.152s-49.152-22.036-49.152-49.152zM458.752 574.976c7.946-0.492-36.454-317.194-32.768-425.984 0 0-6.226-111.329 40.96-106.496 0 0 67.011-40.96 81.92 114.688l-8.192 65.536-16.384-8.192c0 0-13.844-119.030-40.96-122.88 0 0-29.327 24.084-16.384 73.728 0 0 17.449 231.752 16.384 286.72 0 0-1.475 52.429 1.065 107.151 2.212 47.186-20.316 96.748-25.641 15.729zM614.4 427.52l21.217-239.862 11.551-104.202c-30.31-44.319-59.228 17.695-73.728 98.304-13.189 73.4-24.576 147.456-24.576 147.456l-24.576 65.536c0.655-74.465 0-139.264 0-139.264 4.915-83.067 34.98-197.673 34.98-197.673 48.005-73.728 103.137-31.13 103.137-31.13 39.076 24.576 17.531 155.156 17.531 155.156l-32.768 278.528zM524.288 673.28c125.501-5.734 102.154-142.541 102.154-142.541 8.765-57.508-23.265-79.135-23.265-79.135-43.008-41.533-78.889-32.276-78.889-32.276-43.909 18.76 0 49.152 0 49.152 24.822 15.892 53.084 31.457 53.084 31.457 14.090 18.514 13.844 32.522 9.503 53.084-18.104 86.18-44.401 66.109-44.401 66.109-4.014-48.169 6.39-93.307 6.39-93.307-39.649-5.571-73.728-49.152-73.728-49.152-28.672-93.225 32.768-98.304 32.768-98.304 110.51-19.497 147.21 94.208 147.21 94.208 18.76 29.655-1.72 125.338-1.72 125.338-12.698 112.476-104.53 91.832-104.53 91.832zM443.023 466.76c-42.107-26.788-66.191-14.664-66.191-14.664-33.014 22.528 8.192 40.96 8.192 40.96 23.020 8.847 40.96 8.192 40.96 8.192 14.582 12.78 21.709 33.423 20.316 50.872-8.11 97.976 69.796 121.16 69.796 121.16l-40.96 16.384c0 0-23.101-9.421-40.96-40.96-18.514-32.85-23.593-112.476-23.593-112.476-33.505 2.048-68.567-27.935-68.567-27.935-38.83-71.27 10.813-85.606 10.813-85.606 87.572-34.161 114.115 29.409 114.115 29.409z" />
<glyph unicode="&#xe906;" glyph-name="c_6a" d="M328.335 566.292c50.135 0 90.767-40.223 90.767-89.866s-40.632-89.866-90.767-89.866c-50.135 0-90.767 40.223-90.767 89.866s40.632 89.866 90.767 89.866zM278.774 476.262c0-27.116 22.2-48.988 49.562-48.988s49.562 21.955 49.562 48.988c0 27.116-22.2 48.988-49.562 48.988s-49.562-21.955-49.562-48.988zM647.168 411.136c0 0 111.002-4.669 164.659-8.929 31.13-2.54 54.559-9.667 54.559-9.667 36.864-20.972-3.686-36.618-3.686-36.618-41.042-1.229-134.84-1.72-134.84-1.72-17.613-2.703-72.417-0.41-72.417-0.41s-11.96-16.712-32.768-24.576c-31.949-12.042-65.454-24.74-65.454-24.74l59.474 4.014c108.052 7.537 242.401 10.813 242.401 10.813 61.932 3.932 66.683 47.104 66.683 47.104 1.229 58.655-57.672 69.222-57.672 69.222l-229.048 8.274zM323.011 391.066c0 0-36.7 12.698-82.084-18.186 0 0 28.672 32.686 18.268 72.745 0 0-8.847 74.793-91.177 18.186 0 0-77.087-95.683-45.629-154.665 0 0 9.011-43.090 91.177-45.466 0 0 75.776-0.819 155.075 27.279 0 0-1.229 43.5-63.816 18.186 0 0-139.1-38.83-145.9 18.186 0 0-11.141 35.062 27.361 91.013 0 0 24.658 48.66 45.629 18.186 0 0-24.658-51.446-27.361-81.838 0 0-0.41-31.621 36.454-27.279 0 0 52.101 30.556 100.352 36.372 0 0 43.172 30.966-18.268 27.279zM311.296 288.256c0 0 40.223 9.011 81.92 8.192 48.005-0.901 100.106-11.551 131.072-8.192 0 0 150.077-0.164 139.264 98.304l-16.384 81.92c0 0 101.499 32.85 112.394 76.595 0 0 11.223 68.731-76.513 75.858 0 0-137.544-34.324-175.145-78.725 0 0-19.415-34.406-8.192-90.112 0 0 6.881-24.33 16.384-32.768 19.415-17.203 32.768 8.192 32.768 8.192s-26.624 56.607 0 98.304c0 0 16.712 13.599 122.88 49.152 0 0 61.604 8.602 33.669-39.404l-74.629-34.324c0 0-28.18-19.087-16.384-49.152 0 0 53.412-114.688-57.344-131.072 0 0-105.103 6.799-139.264 8.192-82.002 3.359-114.688-16.384-114.688-16.384zM385.024 517.632c85.279 44.974 90.112-8.192 90.112-8.192-2.376-28.262-32.768-57.344-32.768-57.344-32.113-3.523-24.576-16.384-24.576-16.384l139.264-16.384-24.576 32.768-40.96 8.192 8.192 16.384c27.689 44.564-8.192 81.92-8.192 81.92-31.375 19.251-72.417 14.828-90.112 8.192-12.206-4.588-32.768-16.384-32.768-16.384 0-18.842 16.384-32.768 16.384-32.768zM401.408 443.904c67.42 14.664 57.344 57.344 57.344 57.344l-57.344-32.768z" />
<glyph unicode="&#xe907;" glyph-name="c_6b" d="M328.335 566.292c16.63 0 32.195-4.424 45.548-12.124l-22.856-34.243c-6.799 3.441-14.5 5.407-22.692 5.407-27.361 0-49.562-21.955-49.562-48.988 0-27.116 22.2-48.988 49.562-48.988s49.562 21.955 49.562 48.988c0 12.78-4.915 24.412-13.025 33.178h47.923c4.096-10.24 6.308-21.381 6.308-33.014 0-49.644-40.632-89.866-90.767-89.866s-90.767 40.223-90.767 89.866c0 49.644 40.632 89.866 90.767 89.866zM412.385 388.69c20.152 44.237 64.963 84.623 64.963 84.623 15.237 33.833-14.991 43.008-14.991 43.008-29.819 6.554-86.344-1.393-86.344-1.393-34.734 20.316 31.13 38.011 31.13 38.011 64.963 19.825 95.027-1.393 95.027-1.393 37.192-16.876 7.946-82.903-12.042-119.603-34.406-63.242 10.732-54.723 32.195-10.65 16.548 33.997 24.003 58.9 24.003 58.9 22.528 79.053-15.811 100.68-15.811 100.68-46.694 47.841-161.219 3.195-161.219 3.195-78.807-61.44-10.158-92.406-10.158-92.406 35.144-22.036 74.875-4.588 74.875-4.588-43.172-33.915-42.107-72.745-42.107-72.745-22.118-57.426 20.48-25.641 20.48-25.641zM674.857 417.853l-10.158 50.545c0 0 87.327 28.262 96.666 65.864 0 0 9.667 59.064-65.864 65.208 0 0-118.374-29.491-150.733-67.666 0 0-16.712-29.573-7.045-77.496 0 0 5.898-20.89 14.090-28.18 16.712-14.746 28.18 7.045 28.18 7.045s-21.381 40.387 1.475 76.268c0 0 19.497 16.384 106.496 49.152 0 0 39.731 17.449 24.576-24.576l-65.536-32.768c0 0-25.477-11.223-16.384-49.152l8.192-32.768zM253.952 476.672c-18.842-2.376-34.816-8.192-52.101-40.878 0 0-12.042-50.79 34.652-76.186 0 0 29.573-9.257 58.409-22.2 17.859-8.028 55.951-17.613 57.344-16.384l-16.384 32.768c0 0-6.39 5.079-32.768 16.384 0 0-40.878 9.093-57.344 32.768 0 0-13.926 31.293 24.576 40.96 0 0 1.147 34.98-16.384 32.768zM499.712 411.136l118.538-14.418c105.431 7.7 240.517-26.296 240.517-26.296 41.206-27.116-6.308-43.745-6.308-43.745-47.35 0.737-155.238 5.161-155.238 5.161-22.282-2.54-74.301-6.554-105.923-8.929-15.401-1.147-25.969-1.884-25.969-1.884s-54.395-0.41-114.688 8.192c-53.985 7.7-114.688 24.576-114.688 24.576l-32.768-16.384c3.604 0.082 61.932-29.164 122.88-40.96 77.251-14.909 160.891-13.107 165.56-13.025 53.412 1.065 99.533 13.353 145.736 13.025 57.098-0.41 114.688-8.192 114.688-8.192 62.341 3.686 57.344 57.344 57.344 57.344-2.048 61.276-49.152 65.536-49.152 65.536l-344.064 32.768z" />
<glyph unicode="&#xe908;" glyph-name="c_7a" d="M493.076 820.736c50.053 0 90.604-40.632 90.604-90.767s-40.55-90.767-90.604-90.767c-50.053 0-90.604 40.632-90.604 90.767s40.55 90.767 90.604 90.767zM443.515 729.969c0-27.361 22.118-49.562 49.48-49.562 27.279 0 49.48 22.2 49.48 49.562s-22.118 49.562-49.48 49.562c-27.279 0-49.48-22.2-49.48-49.562zM525.517 304.64c0 0-1.638-39.895-3.932-83.395-1.556-29.082-3.768-50.79-5.489-72.253-2.54-31.13-32.768-65.536-32.768-65.536-21.135-36.864-40.96 8.192-40.96 8.192 24.412 42.926 25.805 132.383 25.805 132.383-2.785 17.613-0.41 72.417-0.41 72.417s-16.876 11.96-24.822 32.768c-12.206 31.949-24.904 65.454-24.904 65.454l4.014-59.474c2.54-36.372 4.588-75.776 6.226-111.985 3.195-71.27-26.87-131.564-26.87-131.564 4.014-61.932 57.344-57.344 57.344-57.344 59.146-1.229 73.728 57.344 73.728 57.344s20.562 67.338 22.856 131.564c1.72 47.841 3.277 89.62 3.277 89.62zM408.371 529.592c-3.113-38.912-9.421-77.251-6.717-102.072 0 0-0.164-150.077 99.123-139.264l82.657 16.384c0 0 33.178-101.499 77.251-112.394 0 0 69.304-11.223 76.513 76.513 0 0-34.652 137.544-79.38 175.145 0 0-34.652 19.415-90.849 8.192 0 0-24.494-6.881-33.014-16.384-17.285-19.415 8.274-32.768 8.274-32.768s57.098 26.624 99.123 0c0 0 13.763-16.712 49.562-122.88 0 0 8.602-61.604-39.731-33.669l-34.652 74.629c0 0-19.251 28.18-49.562 16.384 0 0-115.671-53.412-132.219 57.344 0 0-4.178 48.66 5.571 89.129 6.554 27.197-24.166 142.131-31.867 45.711zM507.904 648.704c0 0 37.274-63.57 32.768-221.184h40.96c0 0-9.093 185.795-49.152 237.568zM456.131 572.027c-46.531-4.506-75.039-33.915-75.039-33.915-29.983-21.955-0.737-47.759-0.737-47.759 16.22-26.132 24.576-42.516 24.576-42.516 2.048-30.638-32.44-9.339-32.44-9.339-49.562 26.624-56.361 81.019-56.361 81.019 20.152 60.621 103.875 88.392 103.875 88.392 22.364 12.124 42.025 7.782 59.228 5.898 21.299-2.212-1.147 18.268-1.147 18.268-12.943 10.158-13.107 26.706-64.143 16.302-56.934-11.633-102.318-55.788-102.318-55.788-52.593-53.576-35.062-86.589-35.062-86.589 23.511-98.877 121.569-128.369 121.569-128.369 62.996 11.796 51.528 58.163 51.528 58.163-5.898 36.536-41.042 70.943-41.042 70.943 15.155 15.565 42.516 24.576 42.516 24.576 51.937 21.135 4.833 40.632 4.833 40.632zM540.672 615.936c29.082-24.986 40.305-55.788 40.305-55.788 15.892-32.44 29.819-15.811 29.819-15.811 21.709 19.251 47.923 67.994 47.923 67.994 33.997 0 9.912-47.268 9.912-47.268-22.446-62.587-54.804-73.073-54.804-73.073-23.020 6.636-54.886 30.065-54.886 30.065l6.308-45.384 53.412-13.599c61.112 7.291 94.044 112.558 94.044 112.558 0.082 98.632-61.276 64.143-61.276 64.143-35.881-13.926-45.793-55.542-45.793-55.542-51.528 87.081-81.347 64.471-81.347 64.471z" />
<glyph unicode="&#xe909;" glyph-name="c_7b" d="M493.65 828.928c49.971 0 90.44-40.632 90.44-90.767s-40.468-90.767-90.44-90.767c-49.971 0-90.44 40.632-90.44 90.767s40.468 90.767 90.44 90.767zM444.088 738.161c0-27.361 22.118-49.562 49.398-49.562s49.398 22.2 49.398 49.562c0 27.361-22.118 49.562-49.398 49.562s-49.398-22.2-49.398-49.562zM548.946 303.821l54.723 11.305c0 0 30.556-97.731 71.188-108.216 0 0 63.898-10.813 70.533 73.728 0 0-31.949 132.465-73.236 168.673 0 0-31.949 18.678-83.804 7.864 0 0-23.429 20.48-31.293 11.305-15.974-18.678 8.192-40.96 8.192-40.96s43.991 6.226 82.739-19.415c0 0 17.777-21.791 53.166-119.194 0 0 18.842-44.483-26.624-27.525l-35.471 73.4c0 0-12.124 28.508-53.166 18.35l-35.471-9.175zM532.48 370.176l-8.192-49.152c0.246-35.144-1.802-72.581-4.588-106.988-5.734-70.779-36.372-130.58-36.372-130.58-27.116-41.37-40.96 8.192-40.96 8.192 19.333 42.926 24.576 114.688 24.576 114.688-2.54 22.446-7.291 115.999-9.667 147.784-1.147 15.483-1.884 26.132-1.884 26.132l-4.833 120.996-32.768 65.536c0 0-0.082-208.241 0-212.992 1.065-53.658 8.438-76.431 8.192-122.88-0.41-57.426-24.576-131.072-24.576-131.072-8.684-45.629 49.152-65.536 49.152-65.536 78.316-4.178 73.728 49.152 73.728 49.152s24.74 58.655 28.836 126.075c5.571 92.324 12.124 201.605 12.124 201.605zM508.396 656.896c0 0 21.709-52.347 24.494-98.304h32.686c0 0 7.209 62.915-32.686 114.688zM425.984 632.32c0 0-81.838-39.076-65.536-98.304 0 0 9.257-81.428 65.536-90.112v49.152c0 0-38.912 1.147-32.768 57.344 0 0 9.257 36.372 49.152 40.96zM499.712 615.936c11.141-37.437 16.384-65.536 16.384-65.536 17.285-32.85 32.44-15.974 32.44-15.974 23.511 19.497 52.019 68.895 52.019 68.895 36.946 0 10.813-47.923 10.813-47.923-24.33-63.406-59.556-74.056-59.556-74.056-92.979 25.068-109.445 110.019-109.445 110.019-8.684 23.839-2.621 50.79 24.576 65.536 18.76 10.158-40.96 16.384-40.96 16.384-11.96-11.305-27.361-29.901-24.576-81.92 3.113-57.999 57.344-98.304 57.344-98.304 45.22-59.965 98.304-40.96 98.304-40.96 66.437 7.373 102.154 113.951 102.154 113.951 0.082 99.942-66.601 64.881-66.601 64.881-38.994-14.090-49.725-56.197-49.725-56.197-3.932 17.203-10.404 41.124-10.404 41.124-31.703 52.756-32.768 0-32.768 0z" />
<glyph unicode="&#xe90a;" glyph-name="c_8a" d="M524.288 820.736c49.807 0 90.112-40.305 90.112-90.112s-40.305-90.112-90.112-90.112c-49.807 0-90.112 40.305-90.112 90.112s40.305 90.112 90.112 90.112zM475.136 730.624c0-27.116 22.036-49.152 49.152-49.152s49.152 22.036 49.152 49.152c0 27.116-22.036 49.152-49.152 49.152s-49.152-22.036-49.152-49.152zM595.558 585.462c-9.011 4.588-13.926-35.062-13.926-35.062l16.384-139.264c2.212-20.644 43.5-73.4 65.536-131.072 25.805-67.42 32.768-139.264 32.768-139.264 7.127-42.844-24.576-40.96-24.576-40.96-30.966-5.898-32.768 32.768-32.768 32.768s5.325 52.756-24.576 98.304c-32.44 49.398-57.344 106.496-57.344 106.496-19.743 106.496-65.536 0-65.536 0-19.169-29.983-55.624-67.338-65.536-106.496-17.367-68.977-32.768-122.88-32.768-122.88-45.711-39.813-49.152 16.384-49.152 16.384 1.884 42.189 40.96 163.84 40.96 163.84 11.878 53.248 60.785 92.815 64.881 121.078 10.404 71.68 8.847 173.834 8.847 173.834l-32.768 8.192c-3.195-23.183-8.192-172.032-8.192-172.032-104.694-113.951-122.88-303.104-122.88-303.104 3.195-66.601 73.728-65.536 73.728-65.536 48.579-9.994 65.536 40.96 65.536 40.96s1.475 70.287 24.576 122.88c21.873 49.725 65.536 90.112 65.536 90.112s28.836-37.192 49.152-90.112c20.562-53.576 32.768-122.88 32.768-122.88 34.161-72.663 122.88-16.384 122.88-16.384 32.113 42.189-8.192 155.648-8.192 155.648-9.175 73.236-87.736 192.102-87.736 192.102l-10.568 160.154h-24.576c-0.819 1.147-1.638 1.884-2.458 2.294zM516.096 648.704c0 0-33.669 8.438-58.573 18.022-13.435 5.161-30.474 7.7-51.118 3.195 0 0-88.883-6.308-145.080-5.325 0 0-109.445 8.274-100.434-60.457 0 0 6.144-43.909 63.57-49.398 0 0 48.824 2.867 103.219 3.768 54.559 0.983 122.88 0 122.88 0l8.192 32.768h-188.416c0 0-57.344-6.717-57.344 16.384 0 0 3.113 19.579 56.771 14.828 0 0 101.171 1.147 133.038 10.24 0 0 32.195 7.619 55.951-0.492 0 0 34.243-11.878 57.344-16.384 0 0 72.172 8.929 0 32.768zM533.135 618.148c22.856 4.424 56.689 15.974 56.689 15.974 23.511 7.864 55.378 0.492 55.378 0.492 31.539-8.929 131.564-9.994 131.564-9.994 53.084 4.669 56.115-14.418 56.115-14.418 0-22.528-56.689-15.974-56.689-15.974h-186.286l8.11-31.949c0 0 67.502 0.901 121.487 0 53.74-0.901 102.072-3.686 102.072-3.686 56.771 5.325 62.833 48.087 62.833 48.087 8.929 67.011-99.287 58.9-99.287 58.9-55.542-0.983-143.442 5.161-143.442 5.161-20.48 4.342-37.274 1.884-50.545-3.113-24.576-9.339-57.917-17.613-57.917-17.613-19.825-11.96 0-31.949 0-31.949z" />
<glyph unicode="&#xe90b;" glyph-name="c_8b" d="M525.926 804.352c49.562 0 89.702-40.305 89.702-89.948 0-49.725-40.141-89.948-89.702-89.948s-89.702 40.305-89.702 89.948c0 49.725 40.141 89.948 89.702 89.948zM477.020 714.404c0-27.116 21.873-49.070 48.906-49.070s48.906 21.955 48.906 49.070c0 27.116-21.873 49.070-48.906 49.070s-48.906-21.955-48.906-49.070zM532.234 194.867l-33.997-76.349c-34.079-32.932-38.748 15.811-38.748 15.811 11.141 44.646 40.305 129.27 40.305 129.27l-38.912 25.149-40.059-138.609c-14.582-67.994 30.966-87.163 30.966-87.163 63.488-20.398 92.979 39.649 92.979 39.649l9.748 28.918zM532.48 394.752c3.113-57.016 105.841-257.966 105.841-257.966 10.732-42.107-12.861-42.189-12.861-42.189-30.31-8.52-42.926 21.053-42.926 21.053l-90.767 197.837c-3.85 12.943-17.449 18.596-24.822 40.305-11.223 33.096-16.384 81.92-16.384 81.92l-24.576-24.576c0 0-0.328-40.059 8.192-65.536 12.698-38.093 35.881-66.847 35.881-66.847l82.575-198.492c66.847-77.251 117.064-22.938 117.064-22.938 51.855 41.37-13.189 155.075-13.189 155.075-26.706 36.372-91.341 149.668-91.341 149.668zM451.871 393.605l6.881 156.795h-32.768c-3.195-23.183-6.062-146.801-6.062-146.801zM598.016 476.672l1.311-81.265-17.695-74.383 24.576-57.344c0 0 8.765 26.378 16.384 65.536 6.226 31.867 11.715 78.070 11.715 78.070l-3.523 69.386zM647.168 542.208c0 0 45.466 90.522-51.61 112.886-13.926 3.195-30.392 7.291-50.954 2.458 0 0-87.245-17.285-143.196-17.121 0 0-108.298 9.257-100.188-52.019 0 0 6.717-43.745 63.98-48.415 0 0 55.869-7.782 109.937-6.062 54.313 1.72 106.496 16.384 106.496 16.384l24.576 32.768c0 0-73.564-14.664-131.072-16.384-33.833-1.065-73.728 0-73.728 0s-48.087 2.867-48.415 25.969c0 0 3.113 10.895 56.607 6.799 0 0 91.259 6.799 122.88 16.384 0 0 40.96 12.534 64.799 4.833 0 0 21.217-2.949 25.313-13.025 7.455-18.35-8.192-65.536-8.192-65.536zM516.997 548.925l149.668-30.802c29.327-0.492 42.353-12.943 42.353-12.943-6.963-27.935-45.875-17.285-45.875-17.285s-48.988 4.178-93.635 15.483c-52.101 13.189-101.007 33.833-101.007 33.833l-48.988-3.523c0 0 79.872-54.149 184.074-72.172 53.002-9.175 68.157-8.356 68.157-8.356 66.929 5.571 70.615 46.121 70.615 46.121 13.599 43.581-69.468 52.511-69.468 52.511-55.378 4.424-116.163 16.302-116.163 16.302z" />
<glyph unicode="&#xe90c;" glyph-name="c_9a" d="M401.408 632.32c49.807 0 90.112-40.305 90.112-90.112s-40.305-90.112-90.112-90.112c-49.807 0-90.112 40.305-90.112 90.112s40.305 90.112 90.112 90.112zM352.010 542.208c0-27.197 22.036-49.152 49.234-49.152s49.234 22.036 49.234 49.152c0 27.197-22.036 49.152-49.234 49.152s-49.234-22.036-49.234-49.152zM327.68 222.72l-13.599-76.595c0 0-102.4-3.359-123.29-39.731 0 0-27.443-58.737 52.183-87.654 0 0 136.233-4.588 182.108 25.559 0 0 26.542 25.805 29.983 78.643 0 0 26.051 17.121 19.251 27.197-13.763 20.398-41.697 3.031-41.697 3.031s-5.734-44.073-40.796-74.547c0 0-25.805-11.305-129.106-19.415 0 0-47.841-6.308-19.415 32.932l80.118 14.582c0 0 30.72 4.096 31.867 46.367l0.655 36.618zM318.259 373.944c-3.113-38.912-9.421-77.251-6.717-102.072 0 0-0.164-150.077 99.123-139.264l82.657 16.384c0 0 33.178-101.499 77.251-112.394 0 0 69.304-11.223 76.513 76.513 0 0-34.652 137.544-79.38 175.145 0 0-34.652 19.415-90.849 8.192 0 0-24.494-6.881-33.014-16.384-17.285-19.415-9.503-24.576-9.503-24.576s74.875 18.432 116.982-8.192c0 0 13.763-16.712 49.562-122.88 0 0 8.602-61.604-39.731-33.669l-34.652 74.629c0 0-19.251 28.18-49.562 16.384 0 0-115.671-53.412-132.219 57.344 0 0-4.178 48.66 5.571 89.129 6.554 27.197-24.166 142.131-31.867 45.711zM417.792 476.672c0 0 27.853-50.79 40.96-212.992h32.768c0 0-9.093 177.603-49.152 229.376zM352.256 402.944c-42.516 19.415-81.92 8.192-81.92 8.192-36.864-4.014-24.576-40.96-24.576-40.96 0.901-30.72 0-49.152 0-49.152-13.599-27.525-32.768 8.192-32.768 8.192-29.573 47.841-8.192 98.304-8.192 98.304 47.759 42.435 134.185 24.494 134.185 24.494 25.395-0.737 40.223-14.336 54.231-24.494 17.285-12.616 8.192 16.384 8.192 16.384-6.062 15.237 2.048 29.737-47.35 46.203-55.050 18.432-116.49 2.949-116.49 2.949-72.335-20.070-73.728-57.344-73.728-57.344-29.164-97.403 40.96-172.032 40.96-172.032 60.457-21.381 73.728 24.576 73.728 24.576 13.189 34.57 0 81.92 0 81.92 20.89 5.898 49.152 0 49.152 0 55.542-7.7 24.576 32.768 24.576 32.768zM450.56 435.712c29.082-24.986 40.305-55.788 40.305-55.788 15.892-32.44 29.819-15.811 29.819-15.811 21.709 19.251 47.923 67.994 47.923 67.994 33.997 0 9.912-47.268 9.912-47.268-22.446-62.587-54.804-73.073-54.804-73.073-23.020 6.636-54.886 30.065-54.886 30.065l6.308-45.384 53.412-13.599c61.112 7.291 94.044 112.558 94.044 112.558 0.082 98.632-61.276 64.143-61.276 64.143-35.881-13.926-45.793-55.542-45.793-55.542-51.528 87.081-81.347 64.471-81.347 64.471z" />
<glyph unicode="&#xe90d;" glyph-name="c_9b" d="M591.954 828.928c49.971 0 90.44-40.632 90.44-90.767s-40.468-90.767-90.44-90.767c-49.971 0-90.44 40.632-90.44 90.767s40.468 90.767 90.44 90.767zM542.392 738.161c0-27.361 22.118-49.562 49.398-49.562s49.398 22.2 49.398 49.562c0 27.361-22.118 49.562-49.398 49.562s-49.398-22.2-49.398-49.562zM606.7 656.896c0 0 21.709-52.347 24.494-98.304h32.686c0 0 7.209 62.915-32.686 114.688zM647.25 303.821l65.454 41.779c0 0 0.328-104.202 40.96-114.688 0 0 75.284-18.924 81.92 65.536 0 0-32.44 152.207-73.728 188.416 0 0-38.011 10.24-81.92-16.384 0 0-16.712 9.175-24.576 0-15.974-18.678 8.192-40.96 8.192-40.96s43.172 33.833 81.92 8.192c0 0 21.299-12.37 40.96-122.88 0 0 20.89-49.725-24.576-32.768l-16.384 73.728c0 0-8.11 42.926-49.152 32.768l-47.514-42.68zM630.784 370.176l-8.192-49.152c0.655-107.397-19.497-235.848-19.497-235.848-27.116-41.37-43.745 6.39-43.745 6.39 0.737 47.596 5.161 156.058 5.161 156.058-2.54 22.446-6.554 74.711-8.929 106.496-1.147 15.483-1.884 26.132-1.884 26.132l-4.833 120.996-32.768 65.536c0 0-0.082-208.241 0-212.992 1.065-53.658 8.438-101.007 8.192-147.456-0.41-57.426-3.359-114.36-3.359-114.36 3.686-62.669 57.344-57.672 57.344-57.672 61.276 2.048 65.536 49.398 65.536 49.398l19.743 327.434zM524.288 632.32c0 0-81.838-39.076-65.536-98.304 0 0 9.257-81.428 65.536-90.112v49.152c0 0-38.912 1.147-32.768 57.344 0 0 9.257 36.372 49.152 40.96zM598.016 615.936c11.141-37.437 16.384-65.536 16.384-65.536 17.285-32.85 32.44-15.974 32.44-15.974 23.511 19.497 52.019 68.895 52.019 68.895 36.946 0 10.813-47.923 10.813-47.923-24.33-63.406-59.556-74.056-59.556-74.056-92.979 25.068-109.445 110.019-109.445 110.019-8.684 23.839-2.621 50.79 24.576 65.536 18.76 10.158-40.96 16.384-40.96 16.384-11.96-11.305-27.361-29.901-24.576-81.92 3.113-57.999 57.344-98.304 57.344-98.304 45.22-59.965 98.304-40.96 98.304-40.96 66.437 7.373 102.154 113.951 102.154 113.951 0.082 99.942-66.601 64.881-66.601 64.881-38.994-14.090-49.725-56.197-49.725-56.197-3.932 17.203-10.404 41.124-10.404 41.124-31.703 52.756-32.768 0-32.768 0z" />
<glyph unicode="&#xe90e;" glyph-name="c_10a" d="M526.418 828.928c49.971 0 90.44-40.632 90.44-90.767s-40.468-90.767-90.44-90.767c-49.971 0-90.44 40.632-90.44 90.767s40.468 90.767 90.44 90.767zM476.856 738.161c0-27.361 22.118-49.562 49.398-49.562s49.398 22.2 49.398 49.562c0 27.361-22.118 49.562-49.398 49.562s-49.398-22.2-49.398-49.562zM541.164 656.896c0 0 21.709-52.347 24.494-98.304h32.686c0 0 7.209 62.915-32.686 114.688zM540.672 484.864l-8.192-98.304 4.915-61.030c16.056-106.168 14.582-236.257 14.582-236.257-20.89-44.892-44.237 0-44.237 0-6.144 47.186-17.367 155.238-17.367 155.238-5.734 21.873-17.203 72.991-24.084 104.12-3.359 15.155-5.571 25.559-5.571 25.559s-4.26 21.299-10.158 53.33c-5.079 27.197 24.576 114.688 24.576 114.688l-24.576 49.152c0 0-48.906-117.064-40.96-172.032 7.127-49.070 16.056-87.9 16.384-90.112 8.684-53.002 24.248-85.361 30.556-131.318 7.864-56.934 13.107-113.705 13.107-113.705 12.698-61.522 65.044-48.824 65.044-48.824 60.375 10.813 57.754 58.327 57.754 58.327s-13.599 113.787-19.005 219.136c-3.686 71.107 8.192 147.456 8.192 147.456zM532.48 615.936c11.141-37.437 16.384-65.536 16.384-65.536 17.285-32.85 32.44-15.974 32.44-15.974 23.511 19.497 52.019 68.895 52.019 68.895 36.946 0 10.813-47.923 10.813-47.923-24.33-63.406-59.556-74.056-59.556-74.056-92.979 25.068-109.445 110.019-109.445 110.019-8.684 23.839-2.621 50.79 24.576 65.536 18.76 10.158-40.96 16.384-40.96 16.384-11.96-11.305-27.361-29.901-24.576-81.92 3.113-57.999 57.344-98.304 57.344-98.304 45.22-59.965 98.304-40.96 98.304-40.96 66.437 7.373 102.154 113.951 102.154 113.951 0.082 99.942-66.601 64.881-66.601 64.881-38.994-14.090-49.725-56.197-49.725-56.197-3.932 17.203-10.404 41.124-10.404 41.124-31.703 52.756-32.768 0-32.768 0z" />
<glyph unicode="&#xe90f;" glyph-name="c_10b" d="M524.288 828.928c49.807 0 90.112-40.305 90.112-90.112s-40.305-90.112-90.112-90.112c-49.807 0-90.112 40.305-90.112 90.112s40.305 90.112 90.112 90.112zM474.89 738.816c0-27.197 22.036-49.152 49.234-49.152s49.234 22.036 49.234 49.152c0 27.197-22.036 49.152-49.234 49.152s-49.234-22.036-49.234-49.152zM431.309 624.865c-13.353-36.7-29.655-71.926-33.669-96.584 0 0-40.141-144.589 58.491-160.645l76.349 10.732c0 0-64.143-100.68-24.576-122.88 0 0 86.098-53.658 131.072 49.152 0 0 81.51 115.753 9.912 171.213 0 0-28.262 27.935-85.443 32.113 0 0-25.477-0.082-36.209-6.963-21.873-14.090-15.729-21.135-15.729-21.135s77.087-2.212 110.51-39.076c0 0 38.339-27.935-15.811-119.685 0 0-35.553-63.57-65.536-16.384l24.576 65.536c0 0 30.638 47.022-16.384 49.152 0 0-156.385-57.262-128.123 68.567 0 0 8.929 48.005 29.082 84.46 13.517 24.494 14.582 143.442-18.596 52.511zM532.972 673.28c0 0 21.709-52.347 24.494-98.304h32.686c0 0 7.209 62.915-32.686 114.688zM524.288 632.32c11.141-37.437 16.384-65.536 16.384-65.536 17.285-32.85 32.44-15.974 32.44-15.974 23.511 19.497 52.019 68.895 52.019 68.895 36.946 0 10.813-47.923 10.813-47.923-24.33-63.406-59.556-74.056-59.556-74.056-92.979 25.068-109.445 110.019-109.445 110.019-8.684 23.839-2.621 50.79 24.576 65.536 18.76 10.158-40.96 16.384-40.96 16.384-11.96-11.305-27.361-29.901-24.576-81.92 3.113-57.999 57.344-98.304 57.344-98.304 45.22-59.965 98.304-40.96 98.304-40.96 66.437 7.373 102.154 113.951 102.154 113.951 0.082 99.942-66.601 64.881-66.601 64.881-38.994-14.090-49.725-56.197-49.725-56.197-3.932 17.203-10.404 41.124-10.404 41.124-31.703 52.756-32.768 0-32.768 0zM483.328 386.56c0 0-57.426-103.793 16.384-106.496l24.576 40.96c0 0-44.155-27.689-8.192 65.536z" />
<glyph unicode="&#xe910;" glyph-name="c_13a" d="M262.799 492.564c48.087 0 87.409-37.028 90.522-83.886l-41.042-4.342c-0.983 26.214-22.774 47.268-49.48 47.268-27.361 0-49.562-21.955-49.562-48.988 0-3.441 0.328-6.881 1.065-10.076l-39.158-13.025c-2.048 7.455-3.113 15.237-3.113 23.265 0 49.644 40.632 89.866 90.767 89.866zM344.064 378.368c0 0 60.948 31.048 131.072 32.768 82.739 2.048 131.072 0 131.072 0l40.96 40.96c77.332 71.352 106.496 65.536 106.496 65.536 19.579 24.494 53.084-19.579 90.112-98.304 34.57-73.564 0-73.728 0-73.728-12.534-5.816-29.901-1.556-50.79 38.994-32.85 63.734-43.008 69.714-43.008 69.714-31.867-50.299-52.019-85.524-91.914-106.824-28.59-15.237-27.279-26.46-27.279-26.46l4.424-35.308c53.002 5.243 115.589 86.262 115.589 86.262s30.556-60.047 68.485-75.53c73.646-30.147 85.033 45.138 85.033 45.138s-4.26 82.493-44.483 143.852c-54.968 83.804-81.51 81.347-81.51 81.347s-46.694 5.079-98.304-32.768c-63.734-46.776-98.304-81.92-98.304-81.92s-29.655-2.949-139.264-8.192c-68.239-3.277-114.688-24.576-114.688-24.576 4.096-56.115 16.384-40.96 16.384-40.96zM655.36 337.408h-278.528c-58.081-10.404-106.496-8.192-106.496-8.192-61.522-4.096-73.728 16.384-73.728 16.384-22.036 40.714 131.072 32.768 131.072 32.768l32.768 16.384c44.483 44.237-122.88 16.384-122.88 16.384-94.126 3.85-98.304-73.728-98.304-73.728 19.825-74.22 131.072-57.344 131.072-57.344 41.779 5.407 77.251 6.472 106.496 8.192 68.403 4.096 278.528 0 278.528 0z" />
<glyph unicode="&#xe911;" glyph-name="c_13b" d="M360.448 591.36c49.807 0 90.112-40.305 90.112-90.112 0-38.912-24.74-72.090-59.31-84.705l-22.118 36.209c23.020 4.096 40.468 24.248 40.468 48.415 0 27.116-22.036 49.152-49.152 49.152-15.974 0-30.065-7.537-39.076-19.333l-1.884 3.031-29.409 23.511c16.548 20.644 41.861 33.833 70.369 33.833zM417.792 452.096l24.576-24.576 170.148-16.548 40.796 40.96c77.005 71.27 106.086 65.454 106.086 65.454 19.497 24.494 52.92-19.579 89.784-98.222 34.406-73.482 0-73.646 0-73.646-12.452-5.816-29.737-1.556-50.545 38.912-32.686 63.734-42.844 69.632-42.844 69.632-31.703-50.217-51.855-85.443-91.587-106.742-28.508-15.237-27.116-26.46-27.116-26.46l4.342-35.308c52.756 5.243 115.098 86.18 115.098 86.18s30.474-59.965 68.157-75.448c73.318-30.065 84.705 45.056 84.705 45.056s-4.26 82.493-44.319 143.77c-54.723 83.722-81.183 81.265-81.183 81.265s-46.449 5.079-97.894-32.768c-63.488-46.694-97.894-81.838-97.894-81.838l-153.846 16.548zM661.504 337.326c0 0-165.642-8.11-243.712-8.11-26.051 0-106.496 65.536-106.496 65.536l-24.576-24.576c0 0 64.553-81.92 133.939-81.92 75.366 0 240.763 0 240.763 0zM360.202 356.905l-61.522 86.835c-34.98 50.463-23.675 71.434-23.675 71.434 23.593 39.731 95.109-95.191 95.109-95.191l30.802-19.579c60.703-15.319-48.824 113.459-48.824 113.459-44.892 82.412-113.459 46.203-113.459 46.203-53.494-55.050 17.859-141.476 17.859-141.476 26.051-32.932 61.522-86.835 61.522-86.835z" />
<glyph unicode="&#xe912;" glyph-name="c_14a" d="M524.288 828.928c49.807 0 90.112-40.305 90.112-90.112s-40.305-90.112-90.112-90.112c-49.807 0-90.112 40.305-90.112 90.112s40.305 90.112 90.112 90.112zM475.136 738.816c0-27.116 22.036-49.152 49.152-49.152s49.152 22.036 49.152 49.152c0 27.116-22.036 49.152-49.152 49.152s-49.152-22.036-49.152-49.152zM614.4 574.976c0 0 2.949-21.791 8.929-55.132l-30.31-24.248-11.387 87.572c0 0 22.2 5.898 32.768-8.192zM712.704 230.912c0 0 55.132-118.784 0-155.648 0 0-54.641-49.807-114.688 32.768l-65.536 204.8-73.728-212.992c0 0-31.13-62.095-98.304-40.96 0 0-48.169 19.743-32.768 90.112 0 0 55.788 139.264 81.92 262.144 0 0 1.72 16.056 4.424 38.339l35.799-4.506c-5.898-56.443-15.729-118.374-32.031-164.987 0 0-37.356-101.253-49.152-147.456 0 0 4.997-50.381 40.96-16.384 0 0 64.635 124.355 81.92 229.376 0 0 36.454 113.951 65.536 0l73.728-204.8c0 0 9.994-30.474 40.96-24.576 0 0 23.511-1.884 16.384 40.96 0 0-77.087 192.84-81.92 237.568l-7.782 59.802 15.974-10.65 22.61 7.537c16.302-74.056 41.452-164.413 75.694-220.529zM434.176 583.168l24.576 8.192c0 0-0.41-43.254-4.833-100.68l-30.065 36.045c3.768 26.46 7.537 49.070 10.322 56.443zM466.944 689.664c0 0-25.068-0.492-57.344-16.384-59.31-29.082-116.326-101.663-91.75-154.010 0 0 76.022-155.648 151.552-77.169 0 0 20.726 46.367-26.624 86.508l-13.107 25.805c0 0 20.726 13.435 30.392 27.525 8.356 12.206-3.031 32.604-3.031 32.604l-68.076-63.898c0 0-1.311-18.596 26.87-41.943 0 0 30.474-29.819 1.966-48.333 0 0-29.327 1.229-59.965 70.943 0 0-35.881 67.256 92.733 125.665l42.762 10.322zM548.864 667.136l42.516-10.322c127.795-58.573 92.16-125.911 92.16-125.911-30.392-69.796-59.638-71.025-59.638-71.025-28.262 18.596 1.966 48.415 1.966 48.415 28.017 23.347 26.706 42.025 26.706 42.025l-67.748 64.061c0 0-11.387-20.48-3.031-32.686 9.585-14.090 30.147-27.525 30.147-27.525l-13.025-25.887c-47.104-40.223-26.46-86.671-26.46-86.671 75.121-78.643 150.733 77.332 150.733 77.332 24.412 52.429-32.276 125.174-91.259 154.337-32.113 15.892-57.016 16.384-57.016 16.384z" />
<glyph unicode="&#xe913;" glyph-name="c_14b" d="M605.962 747.008c49.889 0 90.358-40.55 90.358-90.522 0-50.053-40.468-90.522-90.358-90.522s-90.358 40.55-90.358 90.522c0 50.053 40.468 90.522 90.358 90.522zM556.646 656.486c0-27.279 22.036-49.398 49.234-49.398s49.234 22.118 49.234 49.398c0 27.279-22.036 49.398-49.234 49.398s-49.234-22.118-49.234-49.398zM701.071 499.118l1.884-52.429-31.212-43.663 7.373-36.864-7.373 12.288v131.072c1.72-6.799 27.935-32.031 29.327-10.322zM786.432 271.872c0 0 57.836-160.973 0.164-200.376 0 0-54.723-50.053-114.934 32.932 0 0-2.294 65.126-16.302 110.1-14.582 46.94-57.344 49.152-57.344 49.152l-237.568-163.84c0 0-46.121-51.2-131.072-32.768 0 0-49.316 56.607 16.384 122.88 0 0 110.838 79.626 216.76 191.365l29-19.333 12.861 2.54c-24.74-27.197-66.191-72.499-86.589-92.652 0 0-118.948-77.824-147.456-114.688 0 0-36.372-67.256 32.768-49.152l221.184 155.648c0 0 64.143 68.731 114.688 32.768 0 0 33.014-20.48 57.344-65.536 24.166-44.728 16.384-90.112 16.384-90.112s1.884-34.079 32.85-28.099c0 0 23.593-1.884 16.384 41.124 0 0 2.621 54.313-16.548 101.663l-64.061 106.742 47.677 7.946 0.901 1.229c20.234-26.788 46.776-66.109 56.443-99.533zM507.904 493.056l32.768 16.384-12.452-93.225-33.096 39.731c5.079 15.319 9.912 29.573 12.78 37.11zM548.454 607.089c0 0-25.068-0.492-57.508-16.466-59.474-29.245-116.572-102.154-91.996-154.829 0 0 76.186-156.467 151.962-77.578 0 0 20.808 46.531-26.624 86.917l-13.107 25.887c0 0 20.726 13.517 30.392 27.607 8.438 12.288-3.031 32.768-3.031 32.768l-68.239-64.225c0 0-1.311-18.678 26.952-42.107 0 0 30.474-29.983 1.966-48.579 0 0-29.409 1.311-60.047 71.27 0 0-35.963 67.584 92.897 126.321l42.844 10.322zM630.62 584.397l42.598-10.404c128.123-58.9 92.406-126.566 92.406-126.566-30.474-70.124-59.72-71.352-59.72-71.352-28.344 18.678 1.966 48.66 1.966 48.66 28.099 23.429 26.788 42.189 26.788 42.189l-67.912 64.389c0 0-11.387-20.562-3.031-32.85 9.585-14.172 30.228-27.689 30.228-27.689l-13.025-25.969c-47.186-40.468-26.542-87.081-26.542-87.081 75.366-79.053 151.060 77.742 151.060 77.742 24.412 52.756-32.358 125.747-91.505 155.075-32.195 15.974-57.18 16.466-57.18 16.466z" />
<glyph unicode="&#xe914;" glyph-name="c_15a" d="M817.644 454.881c-47.35-16.548-98.959 8.028-115.261 54.886-16.384 46.858 8.765 98.222 56.033 114.77 47.35 16.548 98.959-8.028 115.261-54.886 16.384-46.858-8.765-98.222-56.033-114.77zM834.683 556.216c-8.929 25.559-37.11 38.994-62.915 29.983s-39.567-37.028-30.638-62.587c8.929-25.559 37.11-38.994 62.915-29.983s39.567 37.028 30.638 62.587zM755.712 462.090c0 0-18.842-11.633-46.039-27.935l-5.325 64.635c13.926-0.328 34.98-6.554 51.364-36.7zM400.753 308.818l22.856 33.997c0 0 55.132 17.285 159.744 64.471 9.748 4.424 18.678 8.847 26.706 13.189l4.751-40.878c-117.228-61.112-213.975-70.697-213.975-70.697zM612.598 398.193l-201.933-56.443c-96.993-42.025-230.441-78.070-230.441-78.070-72.417 2.212-16.384 49.152-16.384 49.152 44.892 29.655 131.072 57.344 131.072 57.344 9.83 4.751 68.895 32.768 122.143 54.149 26.296 10.568 99.041 44.155 99.041 44.155l114.688 73.728 16.384 49.152c-59.638-31.949-172.032-98.304-172.032-98.304s-36.045-15.401-64.225-27.361c-122.47-51.937-247.071-111.903-247.071-111.903-73.564-31.457-73.728-90.112-73.728-90.112 18.678-68.076 106.496-40.96 106.496-40.96l397.558 135.414zM663.552 583.168c-20.398-2.458-40.96-8.192-40.96-8.192-36.7-10.158-16.384-40.96-16.384-40.96l49.152 8.192c57.098-12.861 19.579-148.603 19.579-148.603 0.983-76.186-11.96-120.422-11.96-120.422-34.816-11.469-34.161 29.819-34.161 29.819-9.667 30.228 0.164 196.28 0.164 196.28l-33.014-17.777c-11.633-51.773-11.305-149.094-11.305-149.094 4.751-128.369 54.886-106.332 54.886-106.332 103.137-31.293 77.66 172.36 77.66 172.36 21.791 176.947-20.89 168.346-20.89 168.346s-13.681 18.678-32.768 16.384zM729.088 484.864c17.859-260.096-32.768-212.992-32.768-212.992l8.192-32.768c82.903-37.683 57.344 229.376 57.344 229.376z" />
<glyph unicode="&#xe915;" glyph-name="c_15b" d="M856.556 442.184c-47.268-16.384-98.877 8.028-115.261 54.559s8.765 97.567 56.033 114.033c47.268 16.384 98.877-8.028 115.261-54.559s-8.765-97.567-56.033-114.033zM873.677 542.863c-8.929 25.395-37.11 38.748-62.915 29.737-25.805-8.929-39.485-36.782-30.556-62.177s37.11-38.748 62.915-29.737c25.805 8.929 39.485 36.782 30.556 62.177zM665.682 583.332c0 0-42.435-10.404-89.539-164.413 0 0-45.22-197.919 59.72-193.004 0 0 66.355-25.149 69.96 111.739 0 0 5.571 65.946 34.079 121.733l-26.788 24.904c0 0-45.22-92.324-52.756-184.402 0 0-4.997-42.68-35.062-23.265 0 0-21.791 55.869-2.13 128.369 0 0 41.452 160.317 98.468 158.761l46.94-36.454c0 0 24.904 24.084-7.209 42.68 0 0-25.559 20.070-41.697 22.856-15.974 2.703-54.067-9.421-54.067-9.421zM768.082 471.921c-5.652-35.226-7.291-66.765-6.226-93.553 2.867-69.059 11.633-106.824-4.178-110.346-38.42-8.684-44.974 159.498-44.974 159.498l-24.576-106.496c0 0 6.226-29.082 16.384-49.152 13.025-25.805 38.994-44.155 38.994-44.155 24.658-11.141 58.982 7.045 59.31 35.963 0.819 72.581-2.048 192.020-2.048 192.020zM647.168 509.44l-57.344 24.576h-24.576v-40.96c16.548-79.38-8.192-81.92-8.192-81.92 8.765-30.065-38.175-27.525-122.88-8.192-62.505 14.254-57.344 49.152-57.344 49.152 2.458 13.517 12.206 14.582 57.344 8.192 70.943-9.994 73.728 0 73.728 0-22.774 54.886-38.339 53.576-32.768 98.304 3.932 32.113 24.576 40.96 24.576 40.96s15.401 22.856 81.92 16.384c76.841-7.537 147.456-57.344 147.456-57.344l73.728 16.384c0 0-95.683 48.251-155.648 65.536-49.807 14.336-106.496 24.576-106.496 24.576s-48.169-5.079-65.536-16.384c-22.938-14.828-33.014-28.672-33.014-28.672-26.132-46.121 8.438-118.784 8.438-118.784s-65.454 15.974-98.304-8.192c-54.477-40.059 0-98.304 0-98.304s45.548-27.525 114.688-40.96c77.005-14.909 114.688 8.192 114.688 8.192s34.652 9.912 32.768 73.728c-1.556 51.446-8.192 49.152-8.192 49.152l24.576-16.384zM712.704 435.712h73.728l-8.192 32.768h-40.96z" />
<glyph unicode="&#xe916;" glyph-name="c_16a" d="M815.596 409.416c-47.268-16.384-98.877 8.028-115.261 54.559s8.765 97.567 56.033 114.033c47.268 16.384 98.877-8.028 115.261-54.559s-8.765-97.567-56.033-114.033zM832.717 510.095c-8.929 25.395-37.11 38.748-62.915 29.737-25.805-8.929-39.485-36.782-30.556-62.177s37.11-38.748 62.915-29.737c25.805 8.929 39.485 36.782 30.556 62.177zM626.852 548.844c0 0-39.076-19.497-50.954-180.142 0 0-0.41-202.998 100.925-174.981 0 0 70.287-9.83 43.5 124.436 0 0-9.093 65.536 6.308 126.239l-31.621 18.432c0 0-23.757-100.024-10.65-191.529 0 0 4.506-42.68-29-30.474 0 0-33.587 49.644-30.392 124.682 0 0 4.997 165.56 60.948 176.62l53.821-25.149c0 0 19.005 29-16.384 39.977 0 0-29.409 13.926-45.711 13.025-16.22-0.901-50.627-21.135-50.627-21.135zM742.277 439.398c-5.325-35.308-6.717-66.847-5.325-93.635 3.523-69.059 12.616-106.66-3.113-110.428-38.257-9.093-29.409 143.032-29.409 143.032l-8.192-98.304c0 0-2.13-29.164 8.192-49.152 13.271-25.723 15.565-35.963 15.565-35.963 24.74-10.895 58.9 7.619 58.982 36.454 0.164 72.581-3.85 191.939-3.85 191.939zM475.136 493.056c39.895 4.096 81.92-16.384 81.92-16.384 58.819-39.649 0-139.264 0-139.264-48.005-47.514-65.536-16.384-65.536-16.384-12.206 37.437 16.384 131.072 16.384 131.072l-57.344-16.384c-55.869-12.124-57.344 65.536-57.344 65.536 33.26 48.906 81.92 49.152 81.92 49.152 111.084 53.248 237.568-32.768 237.568-32.768l8.192 32.768c-78.561 69.632-212.992 49.152-212.992 49.152-94.454-7.127-122.88-49.152-122.88-49.152-38.502-32.85-31.539-86.917-16.384-114.688 13.271-24.248 24.576-32.768 24.576-32.768 29.901-8.274 57.344-8.192 57.344-8.192v-24.576c-33.997-53.084 24.576-98.304 24.576-98.304 34.406-22.692 90.112 16.384 90.112 16.384 86.262 97.812 57.344 180.224 57.344 180.224-31.457 76.022-131.072 57.344-131.072 57.344zM704.512 402.944h73.728l-8.192 32.768h-40.96zM404.193 409.743c0 0-83.968-18.514-127.058-24.986-28.836-4.342-43.090-7.7-64.471-10.24-30.966-3.768-64.143 13.435-64.143 13.435-40.305 13.353-7.619 43.418-7.619 43.418 51.036-5.734 128.205 6.308 128.205 6.308 16.712 6.226 69.632 19.251 69.632 19.251s5.079 6.472 29.901 19.743c13.271 7.045 24.576 49.152 24.576 49.152l-32.768-16.384c-35.144-9.748-65.044-18.842-100.27-27.689-69.222-17.367-134.103-5.079-134.103-5.079-59.884-16.302-44.728-67.666-44.728-67.666 10.568-58.245 70.943-60.785 70.943-60.785s75.448-9.011 138.854 1.556c47.268 7.864 192.184 45.056 192.184 45.056z" />
<glyph unicode="&#xe917;" glyph-name="c_16b" d="M815.596 409.416c-47.268-16.384-98.877 8.028-115.261 54.559s8.765 97.567 56.033 114.033c47.268 16.384 98.877-8.028 115.261-54.559s-8.765-97.567-56.033-114.033zM832.717 510.095c-8.929 25.395-37.11 38.748-62.915 29.737-25.805-8.929-39.485-36.782-30.556-62.177s37.11-38.748 62.915-29.737c25.805 8.929 39.485 36.782 30.556 62.177zM626.852 548.844c0 0-39.076-19.497-50.954-180.142 0 0-0.41-202.998 100.925-174.981 0 0 70.287-9.83 43.5 124.436 0 0-9.093 65.536 6.308 126.239l-31.621 18.432c0 0-23.757-100.024-10.65-191.529 0 0 4.506-42.68-29-30.474 0 0-33.587 49.644-30.392 124.682 0 0 4.997 165.56 60.948 176.62l53.821-25.149c0 0 19.005 29-16.384 39.977 0 0-29.409 13.926-45.711 13.025-16.22-0.901-50.627-21.135-50.627-21.135zM742.277 439.398c-5.325-35.308-6.717-66.847-5.325-93.635 3.523-69.059 12.616-106.66-3.113-110.428-38.257-9.093-29.409 143.032-29.409 143.032l-8.192-98.304c0 0-2.13-29.164 8.192-49.152 13.271-25.723 15.565-35.963 15.565-35.963 24.74-10.895 58.9 7.619 58.982 36.454 0.164 72.581-3.85 191.939-3.85 191.939zM631.112 451.195c0 0 17.613-85.524-80.855-170.967 0 0-60.457-31.293-91.505-4.178 0 0-52.019 52.675-11.223 100.68l11.223 42.598c0 0-50.463 1.556-90.112 8.192l6.39 25.149 83.722 7.619 56.525-9.994c0 0-40.796-88.965-33.751-127.713 0 0 13.271-33.178 67.174 7.455 0 0 71.598 90.849 18.596 138.035 0 0-21.135 14.008-48.251 21.955 17.121 6.799 51.855 16.384 89.047 1.802 10.158-10.158 18.514-23.429 23.020-40.632zM475.136 550.4c0 0 72.745 24.412 131.072 16.384 60.375-8.356 106.496-49.152 106.496-49.152l8.192 32.768c-78.561 69.632-212.992 49.152-212.992 49.152zM704.512 402.944h73.728l-8.192 32.768h-40.96zM466.944 460.288c-19.333 4.669-64.225 0.737-64.225 0.737s-84.787-14.336-128.123-18.596c-29-2.867-43.418-5.489-64.881-7.045-31.13-2.212-63.406 16.63-63.406 16.63-39.649 15.319-5.489 43.745-5.489 43.745 50.627-8.274 128.369-0.082 128.369-0.082 16.957 5.407 70.451 15.729 70.451 15.729s116.163 40.714 143.606 47.186c31.539 7.373 49.152 40.96 49.152 40.96 1.475 1.556-55.951 0.492-96.829-14.828-33.178-12.452-71.598-21.955-71.598-21.955-35.635-8.028-65.946-15.565-101.499-22.692-69.96-13.926-134.185 1.556-134.185 1.556-60.621-13.271-48.005-65.372-48.005-65.372 7.7-58.655 67.83-64.225 67.83-64.225s74.875-12.78 138.772-5.407c24.33 2.785 79.872 15.974 130.908 20.808 51.282 4.833 90.112 24.576 90.112 24.576s-21.135 3.441-40.96 8.192z" />
<glyph unicode="&#xe918;" glyph-name="c_17a" d="M613.908 747.008c49.725 0 90.030-40.387 90.030-90.194s-40.305-90.194-90.030-90.194c-49.725 0-90.030 40.387-90.030 90.194s40.305 90.194 90.030 90.194zM564.92 656.65c0-27.197 21.955-49.234 48.988-49.234s48.988 22.036 48.988 49.234c0 27.197-21.955 49.234-48.988 49.234s-48.988-22.036-48.988-49.234zM606.208 337.408c0 0-50.381-45.138-81.92-90.112 0 0-88.064-135.332-38.666-184.238 0 0 44.564-58.819 118.374 11.551 0 0 13.926 63.242 35.717 104.612 9.912 18.924 53.74 51.937 72.991 84.46 24.74 41.779 24.576 81.92 24.576 81.92h-32.768c0 0-11.469-43.172-32.768-73.728-21.545-30.966-53.084-49.316-69.14-69.222-31.703-39.404-32.195-85.115-32.195-85.115s-7.946-32.932-37.192-21.545c0 0-23.429 2.376-8.684 43.172 0 0 7.209 53.576 34.406 96.338l94.208 106.824zM516.096 484.864l-8.192-49.152 32.768-16.384 8.192 90.112zM679.936 501.248v-73.728l32.768 16.384-8.192 40.96zM556.646 607.498c0 0-24.986-0.492-57.262-16.384-59.228-29.164-116.163-101.827-91.668-154.255 0 0 75.94-155.894 151.388-77.332 0 0 20.726 46.367-26.542 86.589l-13.025 25.805c0 0 20.644 13.517 30.31 27.525 8.356 12.206-3.031 32.686-3.031 32.686l-67.994-64.061c0 0-1.311-18.678 26.788-41.943 0 0 30.392-29.819 1.966-48.415 0 0-29.327 1.229-59.884 71.025 0 0-35.799 67.338 92.57 125.911l42.68 10.322zM638.484 584.97l42.435-10.322c127.631-58.655 92.078-126.157 92.078-126.157-30.392-69.878-59.556-71.188-59.556-71.188-28.262 18.596 1.966 48.497 1.966 48.497 28.017 23.347 26.624 42.025 26.624 42.025l-67.584 64.143c0 0-11.305-20.48-3.031-32.768 9.585-14.090 30.147-27.607 30.147-27.607l-13.025-25.887c-47.022-40.305-26.378-86.753-26.378-86.753 75.039-78.725 150.487 77.496 150.487 77.496 24.33 52.511-32.195 125.338-91.095 154.583-32.113 15.892-56.934 16.466-56.934 16.466zM524.288 370.176c-5.652-74.465 15.401-138.199 16.384-139.264l32.768 49.152c-11.96 33.423-24.576 90.112-24.576 90.112zM688.128 255.488l6.062-29.655c-15.483-39.404 10.895-55.132 10.895-55.132l67.42-44.483c10.568-47.268-30.638-22.938-30.638-22.938-91.095 47.514-119.357 78.397-119.357 78.397l-34.57-29.245c0 0 39.649-31.048 75.53-52.675 41.779-25.149 80.691-41.452 80.691-41.452 84.050-4.096 81.92 60.703 81.92 60.703-4.915 41.697-96.993 84.378-96.993 84.378l-8.274 92.897z" />
<glyph unicode="&#xe919;" glyph-name="c_17b" d="M507.658 820.736c49.889 0 90.358-40.55 90.358-90.522 0-50.053-40.468-90.522-90.358-90.522s-90.358 40.55-90.358 90.522c0 50.053 40.468 90.522 90.358 90.522zM458.342 730.214c0-27.279 22.036-49.398 49.234-49.398s49.234 22.118 49.234 49.398c0 27.279-22.036 49.398-49.234 49.398s-49.234-22.118-49.234-49.398zM573.44 427.52c-12.452-43.5-8.192-311.296-8.192-311.296-9.585-42.598-39.731-20.48-39.731-20.48-19.825 6.144-17.613 36.864-17.613 36.864l-16.384 237.568-32.768-8.192 8.192-245.76c9.667-88.392 81.92-73.728 81.92-73.728 65.126 13.517 58.081 144.589 58.081 144.589-1.229 118.211-0.164 219.3-8.929 248.627zM417.792 566.784l-8.192-57.344 24.576-24.576 8.192 114.688zM565.248 599.552l8.192-106.496 24.576 16.384-8.192 65.536zM450.15 680.817c0 0-25.068-0.492-57.508-16.466-59.474-29.245-116.572-102.154-91.996-154.829 0 0 76.186-156.467 151.962-77.578 0 0 20.808 46.531-26.624 86.917l-13.107 25.887c0 0 20.726 13.517 30.392 27.607 8.438 12.288-3.031 32.768-3.031 32.768l-68.239-64.225c0 0-1.311-18.678 26.952-42.107 0 0 30.474-29.983 1.966-48.579 0 0-29.409 1.311-60.047 71.27 0 0-35.963 67.584 92.897 126.321l42.844 10.322zM532.316 658.125l42.598-10.404c128.123-58.9 92.406-126.566 92.406-126.566-30.474-70.124-59.72-71.352-59.72-71.352-28.344 18.678 1.966 48.66 1.966 48.66 28.099 23.429 26.788 42.189 26.788 42.189l-67.912 64.389c0 0-11.387-20.562-3.031-32.85 9.585-14.172 30.228-27.689 30.228-27.689l-13.025-25.969c-47.186-40.468-26.542-87.081-26.542-87.081 75.366-79.053 151.060 77.742 151.060 77.742 24.412 52.756-32.358 125.747-91.505 155.075-32.195 15.974-57.18 16.466-57.18 16.466zM507.904 361.984c-22.364 36.372-97.157 19.333-97.157 19.333l-264.192-53.166c-60.047 19.415-7.373 42.025-7.373 42.025 40.796 22.2 180.224 49.152 180.224 49.152 39.567 15.155 65.536 24.576 65.536 24.576l-32.768 32.768c-141.476-33.587-212.992-57.344-212.992-57.344-106.66-37.765-57.344-106.496-57.344-106.496 51.61-40.714 113.705-15.155 113.705-15.155l282.378 54.067z" />
<glyph unicode="&#xe91a;" glyph-name="c_18a" d="M214.467 636.498c37.683 33.014 94.945 29.164 127.959-8.602 33.014-37.683 29.245-95.027-8.356-127.959-37.683-33.014-94.945-29.164-127.959 8.602-33.014 37.683-29.245 95.027 8.356 127.959zM236.913 535.572c18.022-20.562 49.316-22.692 69.796-4.669 20.562 18.022 22.61 49.234 4.588 69.878-18.022 20.562-49.316 22.692-69.796 4.669-20.562-18.022-22.61-49.234-4.588-69.878zM344.064 345.6c54.723-52.92 129.679-67.666 172.032-57.344 41.452 10.076 73.728 65.536 73.728 65.536 14.991 37.028 40.96 65.536 40.96 65.536h131.072c54.804 10.813 16.384 49.152 16.384 49.152-80.445 16.302-180.224 8.192-180.224 8.192-49.152-7.7-73.728-98.304-73.728-98.304s-53.002-26.051-40.96 16.384c3.523 12.288 32.768 65.536 32.768 65.536 34.898 45.466 81.92 57.344 81.92 57.344 58.409 1.229 196.608-16.384 196.608-16.384 68.813-63.652 16.384-98.304 16.384-98.304-40.387-20.89-155.648-16.384-155.648-16.384l-59.72-96.42c-89.211-116.736-259.768 6.308-259.768 6.308-35.635 32.604-64.799 79.38-85.77 120.095l32.031 13.763c14.828-27.361 35.389-59.064 61.932-84.623zM311.296 509.44c0 0 33.178-24.166 57.344-49.152 27.279-28.262 63.652-65.946 140.657-88.228l30.802 26.952c0 0-83.395 25.477-146.801 86.098-17.94 17.203-36.864 25.887-49.234 48.906zM180.224 501.248c0.41-0.082-49.807 1.393-65.536-98.304 0.819-45.384-8.52-165.478 86.18-163.103 0 0 71.025 0.082 25.723 129.27 0 0 11.715 53.166 76.513 50.217l-24.576 24.576c0 0-109.117-1.311-81.019-126.239 0 0 10.486-41.697-24.494-34.243 0 0-24.576 36.536-17.367 111.329 0 0-22.118 58.327 65.536 81.92l40.96 8.192c0 0 3.85 26.788-32.768 32.768z" />
<glyph unicode="&#xe91b;" glyph-name="c_18b" d="M214.057 634.532c37.519 32.85 94.536 29 127.468-8.52 32.932-37.601 29.164-94.618-8.356-127.549-37.519-32.85-94.536-29-127.468 8.52-32.932 37.601-29.164 94.618 8.356 127.549zM236.421 533.934c17.94-20.48 49.070-22.61 69.55-4.669s22.528 49.070 4.506 69.55c-17.94 20.48-49.070 22.61-69.55 4.669s-22.528-49.070-4.506-69.55zM360.448 345.6c54.559-52.756 111.903-68.239 154.092-57.999 71.68 17.449 271.892 115.343 271.892 115.343 119.521 31.621 90.112 65.536 90.112 65.536-36.127 16.22-163.84-40.96-163.84-40.96-65.208-23.839-172.032-65.536-172.032-65.536s-13.599 8.765 0 24.576c10.65 12.37 40.96 24.576 40.96 24.576 106.66 56.934 262.144 98.304 262.144 98.304 58.163 1.229 73.728-16.384 73.728-16.384 26.788-61.112-32.768-90.112-32.768-90.112-40.223-20.808-163.84-73.728-163.84-73.728l-106.496-49.152c-38.584-17.613-69.386-33.997-96.338-38.666-80.282-14.090-165.806 55.050-165.806 55.050-38.175 34.898-73.155 82.248-98.468 120.75l33.669 14.418c20.316-27.771 46.121-60.047 72.991-86.016zM516.096 411.136c118.784 47.104 311.296 114.688 311.296 114.688 34.816 4.096 32.768-32.768 32.768-32.768h24.576c8.192 51.2-32.768 57.344-32.768 57.344-53.248 24.576-368.64-114.688-368.64-114.688zM310.559 540.733c0 0 33.096-24.084 57.098-48.988 27.116-28.099 63.406-65.7 140.083-87.9l30.72 26.87c0 0-83.067 25.313-146.227 85.77-17.859 17.121-36.7 25.723-49.070 48.742zM180.224 484.864c0.41-0.082-41.615-25.723-57.344-106.496 0.819-45.22-2.703-141.394 77.578-139.018 0 0 78.725-6.39 45.302 89.866 0 0-7.946 91.914 56.607 88.965l-24.494 24.494c0 0-92.897-13.517-64.881-138.035 0 0-2.621-40.059-32.768-16.384 0 0-23.511 7.455-16.384 81.92 0 0-7.864 59.638 65.536 90.112l32.195 23.183c0 0 4.26 11.878-32.195 17.777zM335.872 534.016l73.728-49.152c-2.376 62.013-57.344 65.536-57.344 65.536zM253.952 411.136c0 0-23.265-161.137 81.92-131.072 0 0 23.593 4.833 24.576 32.768l-24.576 32.768c0 0 3.113-33.341-24.576-32.768-4.096-14.746-28.262 28.344-16.384 81.92z" />
<glyph unicode="&#xe91c;" glyph-name="c_20a" d="M205.455 410.644c50.135 0 90.767-40.223 90.767-89.866s-40.632-89.866-90.767-89.866c-50.135 0-90.767 40.223-90.767 89.866s40.632 89.866 90.767 89.866zM155.894 320.614c0-27.116 22.2-48.988 49.562-48.988s49.562 21.955 49.562 48.988c0 27.116-22.2 48.988-49.562 48.988s-49.562-21.955-49.562-48.988zM548.864 378.368c0 0 34.57 35.144 98.304 81.92 51.61 37.847 98.304 32.768 98.304 32.768s26.542 2.458 81.51-81.347c40.223-61.358 44.483-143.852 44.483-143.852s-11.469-75.284-85.033-45.138c-37.847 15.483-68.485 75.53-68.485 75.53s-62.587-81.019-115.589-86.262l-4.424 35.308c0 0-1.393 11.141 27.279 26.46 39.895 21.299 60.129 56.525 91.914 106.824 0 0 10.158-5.98 43.008-69.714 20.89-40.55 38.257-44.81 50.79-38.994 0 0 34.57 0.164 0 73.728-37.028 78.725-70.533 122.798-90.112 98.304 0 0-29.164 5.816-106.496-65.536l-40.96-40.96c0 0-44.237 1.884-120.504 0.246l4.997 34.98c70.369 3.686 90.931 5.734 90.931 5.734zM622.592 263.68l-278.528-8.192-8.192-32.768c0 0 42.435 0 98.304 0 79.217 0 188.416-8.192 188.416-8.192zM253.952 239.104c45.548-31.867 114.688-16.384 114.688-16.384l-8.192 32.768c0 0-43.008-0.819-65.536 8.192-17.94 7.209-16.384 24.576-16.384 24.576 30.065 29.901 81.92 65.536 81.92 65.536 48.251 38.42 65.536 8.192 65.536 8.192 36.618-18.514-49.152-81.92-49.152-81.92l57.344 8.192c79.544 50.463 32.195 106.414 32.195 106.414-58.573 49.725-155.075-24.494-155.075-24.494-45.384-28.262-68.157-70.451-68.157-70.451s-13.844-43.418 10.813-60.621z" />
<glyph unicode="&#xe91d;" glyph-name="c_20b" d="M557.302 730.706c49.889 0 90.358-39.813 90.358-88.965s-40.468-88.965-90.358-88.965c-49.889 0-90.358 39.813-90.358 88.965s40.468 88.965 90.358 88.965zM507.986 641.577c0-26.788 22.118-48.497 49.316-48.497 27.279 0 49.316 21.709 49.316 48.497s-22.118 48.497-49.316 48.497c-27.279 0-49.316-21.709-49.316-48.497zM645.038 460.37c51.446 37.519 97.894 32.44 97.894 32.44s26.46 2.458 81.183-80.527c40.059-60.703 44.319-142.459 44.319-142.459s-11.387-74.465-84.705-44.646c-37.765 15.319-68.157 74.793-68.157 74.793s-62.341-80.282-115.098-85.443l-4.342 34.98c0 0-1.393 11.059 27.116 26.214 39.731 21.053 59.884 55.951 91.587 105.759 0 0 10.158-5.898 42.844-68.977 20.808-40.141 38.093-44.319 50.545-38.584 0 0 34.406 0.164 0 72.991-36.864 77.988-70.205 121.569-89.784 97.321 0 0-29.082 5.734-106.086-64.881l-35.553-35.308 17.94 77.578c13.926 11.387 30.72 24.576 50.299 38.83zM589.824 460.288c0 0-6.636-14.254-8.192-32.768-2.376-28.426 0-65.536 0-65.536l32.768 49.152 8.192 65.536zM496.599 581.693c0 0 40.468 7.619 93.225 1.475 0 0 107.725 1.065 122.88-73.728 0 0 22.036-74.301-155.648-57.344 0 0-0.573 15.892 8.192 24.576 6.881 6.881 23.511 7.045 23.511 7.045s91.914-11.305 74.793 25.723c0 0 9.912 18.924-40.96 32.768 0 0-63.652 13.271-105.431 8.684 0 0-3.113-3.277-4.915-8.684h-45.384c3.85 22.282 29.655 39.485 29.655 39.485zM466.944 550.4c0 0-45.384-135.414-16.384-253.952 0 0 4.506-88.637 155.648-81.92v40.96c0 0-94.618-28.508-114.688 65.536 0 0-37.274 49.644 24.576 237.568 0 0 0 43.827-49.152-8.192z" />
<glyph unicode="&#xe91e;" glyph-name="c_23a" d="M524.943 837.12c49.644 0 89.866-40.468 89.866-90.358s-40.223-90.358-89.866-90.358c-49.644 0-89.866 40.468-89.866 90.358s40.223 90.358 89.866 90.358zM476.037 746.598c0-27.279 21.873-49.316 48.906-49.316s48.906 22.118 48.906 49.316c0 27.279-21.873 49.316-48.906 49.316s-48.906-22.118-48.906-49.316zM589.824 501.248c-2.294-45.957-7.619-392.315-7.619-392.315-9.503-42.516-39.485-20.48-39.485-20.48-19.743 6.144-17.531 36.864-17.531 36.864s0.41 182.108-9.093 269.435c-3.195 29.082-24.576 40.96-24.576 40.96l-8.192-40.96c0 0 6.881-43.090 8.192-81.92 2.376-72.581-7.045-203.899-7.045-203.899 9.585-88.31 81.428-73.646 81.428-73.646 64.799 13.517 57.754 144.343 57.754 144.343-1.229 118.047-0.573 292.209-9.257 321.536zM589.824 706.048c-14.5-1.556-16.384-24.576-16.384-24.576l40.96-32.768c49.725-125.010-24.576-131.072-24.576-131.072-77.742-9.83-106.742 3.604-106.742 3.604-3.113 33.669 39.158 28.836 39.158 28.836 35.717-7.209 67.584 16.712 67.584 16.712l-32.768 73.728c0 0-12.042-2.212-16.384-16.384-5.079-16.302 8.765-34.57 8.765-34.57l-28.344-6.062c-60.867 11.387-84.378-33.751-84.378-33.751-14.828-107.807 177.684-56.607 177.684-56.607 56.279 13.926 69.304 48.824 40.96 131.072-11.633 33.833-24.576 65.536-24.576 65.536s-30.638 17.531-40.96 16.384zM442.368 525.824l24.576 16.384c1.147 46.367 0 98.304 0 98.304-37.765-37.847-24.576-114.688-24.576-114.688zM466.944 689.664c0 0-52.347 0.573-98.304-147.456 0 0-25.149-67.174 0-81.92l32.768 40.96c0 0-3.441 26.87 24.576 81.92 0 0 20.89 61.522 73.728 90.112zM434.176 534.016c36.209 0 68.567-37.765 65.536-118.784-1.556-40.305-5.652-61.522-18.432-89.293-12.206-26.46-29-29.491-47.104-29.491-16.63 0-37.601-1.802-49.152 20.972-13.681 26.87-16.384 60.948-16.384 104.776 0 81.019 29.327 111.821 65.536 111.821zM434.176 499.118c0 0-35.389 11.223-32.768-76.841 0 0-4.751-89.047 32.768-90.849 0 0 36.045 6.308 32.768 90.849 0 0 1.556 82.985-32.768 76.841z" />
<glyph unicode="&#xe91f;" glyph-name="c_23b" d="M527.319 837.12c49.48 0 89.62-40.468 89.62-90.358s-40.141-90.358-89.62-90.358c-49.48 0-89.62 40.468-89.62 90.358s40.141 90.358 89.62 90.358zM478.74 746.598c0-27.197 21.709-49.316 48.579-49.316 26.788 0 48.579 22.036 48.579 49.316 0 27.197-21.709 49.316-48.579 49.316-26.788 0-48.579-22.036-48.579-49.316zM625.623 179.712c0 0 7.045-130.908-57.508-144.343 0 0-71.516-14.664-81.101 73.646 0 0 9.421 131.236 7.045 203.899-0.655 20.152-2.867 41.533-4.751 57.344h10.486l20.234 10.076c7.946-91.423 7.619-254.935 7.619-254.935s-2.212-30.638 17.449-36.864c0 0 29.819-22.036 39.322 20.48 0 0 3.277 212.746 5.734 326.861l24.248 8.11 7.127 7.127c3.277-67.666 3.195-184.648 4.096-271.401zM445.071 525.824l21.873-16.384c1.147 46.367 2.621 131.072 2.621 131.072-37.683-37.847-24.494-114.688-24.494-114.688zM458.752 697.856c0 0-61.604-15.811-57.344-90.112 0 0-74.383 2.048-73.728-49.152 0 0-14.828-65.372 40.96-73.728l8.192 32.768c0 0-27.935 33.669 0 49.152 0 0 30.638 15.401 65.536 8.192 0 0-35.308 91.259 65.536 98.304zM368.886 534.262c26.46 24.494 75.776 18.678 128.614-42.844 26.214-30.556 37.683-48.988 47.186-77.988 9.011-27.689-1.147-41.288-14.418-53.494-12.124-11.223-26.296-26.788-50.135-17.859-28.262 10.486-53.33 33.587-83.149 65.782-55.050 59.474-54.477 101.908-28.099 126.403zM392.561 508.621c0 0-33.423-15.729 28.262-78.561 0 0 57.016-68.567 85.688-44.483 0 0 22.118 29-37.765 88.801 0 0-55.296 62.013-76.186 34.243zM638.976 673.28c-16.63 21.873-32.768 32.768-32.768 32.768-34.324 12.452-24.576-16.384-24.576-16.384l40.96-57.344c29.082-62.095 3.768-115.835 3.768-115.835-30.31-68.485-54.231-63.652-54.231-63.652-56.934-10.895-20.234 30.147-20.234 30.147 85.115 95.191 11.551 151.88 11.551 151.88l-33.096-9.585c57.18-28.672 5.325-105.021 5.325-105.021-76.022-67.912-4.915-100.352-4.915-100.352 68.157-40.878 112.148 44.81 135.004 83.886 25.969 78.152 2.212 120.832 2.621 120.75 0 0-15.155 30.147-29.327 48.742z" />
<glyph unicode="&#xe920;" glyph-name="c_25a" d="M385.024 632.32c49.807 0 90.112-40.305 90.112-90.112s-40.305-90.112-90.112-90.112c-49.807 0-90.112 40.305-90.112 90.112s40.305 90.112 90.112 90.112zM335.626 542.208c0-27.197 22.036-49.152 49.234-49.152s49.234 22.036 49.234 49.152c0 27.197-22.036 49.152-49.234 49.152s-49.234-22.036-49.234-49.152zM311.296 222.72l-13.599-76.595c0 0-102.4-3.359-123.29-39.731 0 0-27.443-58.737 52.183-87.654 0 0 136.233-4.588 182.108 25.559 0 0 26.542 25.805 29.983 78.643 0 0 26.051 17.121 19.251 27.197-13.763 20.398-41.697 3.031-41.697 3.031s-5.734-44.073-40.796-74.547c0 0-25.805-11.305-129.106-19.415 0 0-47.841-6.308-19.415 32.932l80.118 14.582c0 0 30.72 4.096 31.867 46.367l0.655 36.618zM301.875 373.944c-3.113-38.912-9.421-77.251-6.717-102.072 0 0-0.164-150.077 99.123-139.264l82.657 16.384c0 0 33.178-101.499 77.251-112.394 0 0 69.304-11.223 76.513 76.513 0 0-34.652 137.544-79.38 175.145 0 0-34.652 19.415-90.849 8.192 0 0-24.494-6.881-33.014-16.384-17.285-19.415-9.503-24.576-9.503-24.576s74.875 18.432 116.982-8.192c0 0 13.763-16.712 49.562-122.88 0 0 8.602-61.604-39.731-33.669l-34.652 74.629c0 0-19.251 28.18-49.562 16.384 0 0-115.671-53.412-132.219 57.344 0 0-4.178 48.66 5.571 89.129 6.554 27.197-24.166 142.131-31.867 45.711zM401.408 476.672c0 0 27.853-50.79 40.96-212.992h32.768c0 0-9.093 177.603-49.152 229.376zM335.872 402.944c-42.516 19.415-81.92 8.192-81.92 8.192-36.864-4.014-24.576-40.96-24.576-40.96 0.901-30.72 0-49.152 0-49.152-13.599-27.525-32.768 8.192-32.768 8.192-29.573 47.841-8.192 98.304-8.192 98.304 47.759 42.435 134.185 24.494 134.185 24.494 25.395-0.737 40.223-14.336 54.231-24.494 17.285-12.616 8.192 16.384 8.192 16.384-6.062 15.237 2.048 29.737-47.35 46.203-55.050 18.432-116.49 2.949-116.49 2.949-72.335-20.070-73.728-57.344-73.728-57.344-29.164-97.403 40.96-172.032 40.96-172.032 60.457-21.381 73.728 24.576 73.728 24.576 13.189 34.57 0 81.92 0 81.92 20.89 5.898 49.152 0 49.152 0 55.542-7.7 24.576 32.768 24.576 32.768zM434.176 435.712c29.082-24.986 40.305-55.788 40.305-55.788 15.892-32.44 29.819-15.811 29.819-15.811 21.709 19.251 47.923 67.994 47.923 67.994 33.997 0 9.912-47.268 9.912-47.268-22.446-62.587-54.804-73.073-54.804-73.073-23.020 6.636-54.886 30.065-54.886 30.065l6.308-45.384 53.412-13.599c61.112 7.291 94.044 112.558 94.044 112.558 0.082 98.632-61.276 64.143-61.276 64.143-35.881-13.926-45.793-55.542-45.793-55.542-51.528 87.081-81.347 64.471-81.347 64.471z" />
<glyph unicode="&#xe921;" glyph-name="c_25b" d="M573.358 828.928c50.053 0 90.604-40.632 90.604-90.767s-40.55-90.767-90.604-90.767c-50.053 0-90.604 40.632-90.604 90.767s40.55 90.767 90.604 90.767zM523.796 738.161c0-27.361 22.2-49.562 49.562-49.562s49.562 22.2 49.562 49.562c0 27.361-22.2 49.562-49.562 49.562s-49.562-22.2-49.562-49.562zM662.733 473.559l-35.144-5.079c1.556 23.429-0.573 59.064-3.113 88.474l38.502-4.751c6.636-41.533-0.246-78.561-0.246-78.561zM612.27 370.176l-8.192-49.152c0.655-107.397-19.497-235.848-19.497-235.848-27.197-41.37-43.827 6.39-43.827 6.39 0.737 47.596 5.161 156.058 5.161 156.058-2.54 22.446-6.554 74.711-8.929 106.496-1.147 15.483-1.884 26.132-1.884 26.132l-6.636 186.532-24.74-16.384c0 0-6.39-191.857-6.226-196.608 1.065-53.658 8.438-101.007 8.192-147.456-0.41-57.426-3.359-114.36-3.359-114.36 3.768-62.669 57.426-57.672 57.426-57.672 61.358 2.048 65.618 49.398 65.618 49.398l19.743 327.434zM685.097 516.321c56.771 20.070 127.959 24.33 127.959 24.33s56.115 7.619 75.366-43.5c0 0 22.364-44.155-30.228-68.895 0 0-61.932 0.41-122.962-26.788-31.048-13.844-57.18-27.034-87.982-41.697l-27.607-20.316c0 0-25.068 27.034 8.11 55.378 19.988 17.121 30.966 16.22 30.966 16.22s46.776 20.562 61.112 29c0 0 69.304 23.675 117.391 26.952 0 0 25.231 32.768-14.172 38.257 0 0-33.423 10.158-61.44 1.638-19.333-5.898-31.949-11.305-57.836-19.988-20.234-6.799-50.135-18.35-74.138-27.935l4.669 37.11c20.48 8.684 38.994 16.22 50.79 20.398zM461.292 526.725c-36.536-40.878-40.468-84.378-40.468-84.378 13.353-22.364 30.556 3.85 30.556 3.85 20.726 34.243 50.299 64.225 70.779 82.903l-2.048-36.045 10.813 9.912c-23.020-23.265-37.437-46.858-37.437-46.858-46.94-88.064-82.33-50.217-82.33-50.217-70.451 30.802 23.757 145.162 23.757 145.162 45.466 47.759 75.203 66.519 92.652 73.81l-2.212-40.223c-32.522-21.873-64.061-57.999-64.061-57.999zM555.581 524.431c-3.113-2.294-6.144-4.669-9.011-7.127l8.684 8.028zM495.534 615.936c-3.768-13.517 8.274-81.92 8.274-81.92 2.949-31.867 24.74 8.192 24.74 8.192v65.536c19.579 44.81 160.317 0.573 160.317 0.573 64.389-11.878 100.516-49.807 100.516-49.807 4.342-30.556-31.13-18.432-31.13-18.432-75.448 28.754-164.823 28.262-164.823 28.262l9.912-30.147c54.395 1.229 108.462-19.169 108.462-19.169 109.363-48.579 113.705 12.37 113.705 12.37 42.189 79.626-130.58 118.702-130.58 118.702-170.23 37.765-182.927-1.393-182.927-1.393s-12.78-19.333-16.548-32.768z" />
<glyph unicode="&#xe922;" glyph-name="freetime" d="M524.288 828.928c49.807 0 90.112-40.305 90.112-90.112s-40.305-90.112-90.112-90.112c-49.807 0-90.112 40.305-90.112 90.112s40.305 90.112 90.112 90.112zM475.136 738.816c0-27.116 22.036-49.152 49.152-49.152s49.152 22.036 49.152 49.152c0 27.116-22.036 49.152-49.152 49.152s-49.152-22.036-49.152-49.152zM581.632 558.592l16.384-172.032c4.833-44.728 40.96-245.76 40.96-245.76 7.127-42.844-16.384-49.152-16.384-49.152-30.966-5.898-32.768 32.768-32.768 32.768l-32.768 221.184c-29.082 113.951-65.536 0-65.536 0-17.285-105.021-40.96-237.568-40.96-237.568-45.711-39.813-49.152 16.384-49.152 16.384 1.884 42.189 32.768 155.648 32.768 155.648 14.991 73.564 24.576 278.528 24.576 278.528l-16.384 49.152c-3.195-23.183-24.576-180.224-24.576-180.224-27.853-109.199-57.344-294.912-57.344-294.912-15.401-70.369 40.96-81.92 40.96-81.92 67.174-21.135 90.112 40.96 90.112 40.96l32.768 212.992 32.768-221.184c34.161-72.663 114.688-16.384 114.688-16.384 32.113 42.189-8.192 163.84-8.192 163.84-25.887 206.111-65.536 376.832-65.536 376.832-10.568 14.090-16.384-49.152-16.384-49.152zM507.904 656.896l8.192-32.768c30.31-1.147 65.126 8.602 65.126 8.602 35.963-1.72 40.632-48.579 40.632-48.579 1.556-33.178 32.522-129.516 32.522-129.516 21.463-49.316 0-64.717 0-64.717-24.412-16.302-40.632 48.579-40.632 48.579l-8.11-48.579c23.265-52.675 66.109-44.319 66.109-44.319 66.929 13.599 24.576 114.688 24.576 114.688-18.76 52.92-40.96 139.264-40.96 139.264-6.799 60.129-57.344 73.728-57.344 73.728-31.621-6.308-90.112-16.384-90.112-16.384zM440.893 673.28c0 0-51.446-13.599-58.327-73.646 0 0-22.61-86.18-41.615-139.018 0 0-43.008-100.925 24.986-114.524 0 0 43.581-8.356 67.174 44.319l-8.274 48.497c0 0-16.548-64.717-41.288-48.497 0 0-21.791 15.401 0 64.635 0 0 31.457 96.174 33.014 129.27 0 0 4.751 46.776 41.288 48.497 0 0 35.389-9.748 66.191-8.602l8.356 32.686c0 0-59.474 10.076-91.587 16.384z" />
<glyph unicode="&#xe923;" glyph-name="y_1" d="M592.282 620.851c-16.384 46.694-68.813 71.27-116.326 54.886-35.226-12.288-58.163-43.418-61.44-78.643 3.277-0.819 6.554-3.277 9.011-7.373 8.192-17.203 22.118-29.491 26.214-47.514 0.819-2.458 2.458-4.915 4.096-7.373 3.277-6.554 1.638-13.107-1.638-18.022 23.757-16.384 54.067-22.118 83.558-12.288 47.514 18.022 72.909 68.813 56.525 116.326zM521.83 544.666c-26.214-9.011-54.067 4.096-63.078 30.31-9.011 25.395 4.915 54.067 31.13 63.078s54.067-4.096 63.078-30.31-4.915-54.067-31.13-63.078zM784.794 339.046c-11.469 14.746-29.491 18.842-38.502 21.299-26.214 6.554-49.971 0-49.971 3.277-0.819 2.458 24.576 4.096 35.226 21.299 2.458 4.915 4.915 12.288 4.096 21.299-1.638 19.661-20.48 31.13-41.779 45.056 0 0-77.005 49.971-149.094 77.005-1.638 0.819-5.734 2.458-10.65 0.819-9.011-3.277-12.288-17.203-13.926-25.395 28.672-14.746 52.429-25.395 68.813-32.768 27.853-12.288 53.248-30.31 81.92-42.598 6.554-2.458 23.757-9.83 24.576-21.299 0-0.819 0.819-4.915-1.638-8.192s-10.65-9.83-75.366 13.926c-16.384 6.554-40.141 15.565-67.994 29.491 0.819 1.638 1.638 4.096 1.638 5.734 8.192 20.48-25.395 29.491-33.587 9.011-12.288-30.31-18.842-61.44-25.395-93.389-1.638-5.734 0.819-10.65 3.277-14.746 1.638-2.458 3.277-5.734 6.554-9.011 8.192-8.192 18.022-11.469 25.395-13.107 25.395-6.554 47.514-4.096 47.514-4.096 37.683 3.277 12.288-3.277 97.485 1.638 48.333 2.458 67.174 4.915 77.005-7.373 4.915-5.734 8.192-15.565 4.096-22.118-5.734-11.469-28.672-9.83-61.44-9.011-56.525 1.638-37.683-3.277-103.219-1.638-40.96 0.819-65.536 3.277-90.112 2.458-1.638 0-18.842-0.819-42.598-1.638-4.096 0-8.192 0-12.288 0-13.107-0.819-31.949-1.638-54.067 4.096-14.746 4.096-27.034 9.011-36.864 13.926-8.192 6.554-17.203 15.565-23.757 27.853s-8.192 26.214-11.469 54.067c-3.277 28.672-1.638 35.226 0 38.502 4.096 9.011 9.83 14.746 22.938 25.395 5.734 4.915 17.203 13.926 46.694 31.13 31.13 18.022 37.683 19.661 45.056 17.203 6.554-2.458 13.926-7.373 15.565-14.746 2.458-9.83-7.373-19.661-13.926-26.214-12.288-12.288-20.48-11.469-38.502-22.938-16.384-10.65-25.395-15.565-29.491-26.214-8.192-19.661 4.096-45.056 18.842-55.706 2.458-1.638 9.011-6.554 13.926-3.277 4.915 2.458 4.096 13.107 4.096 16.384-0.819 14.746-8.192 19.661-6.554 27.034 2.458 6.554 11.469 9.83 16.384 11.469 20.48 6.554 43.418 19.661 54.067 31.949 25.395 27.853 11.469 75.366 9.83 81.101-2.458 7.373-6.554 13.107-11.469 17.203 1.638 2.458 3.277 4.915 4.915 8.192 25.395 52.429-63.898 87.654-97.485 99.942-49.971 18.022-100.762 11.469-114.688-48.333-13.107-57.344 34.406-81.92 80.282-100.762-12.288-9.011-22.938-18.022-31.13-24.576-0.819-0.819-8.192-7.373-10.65-9.83-18.842-19.661-13.107-58.163-9.83-82.739 4.915-36.864 8.192-64.717 31.13-89.293 4.096-4.915 13.107-13.107 27.034-21.299 44.237-26.214 92.57-19.661 154.010-17.203 65.536 2.458 63.078-2.458 187.597 1.638 61.44 1.638 89.293 4.096 101.581 24.576 13.107 16.384 10.65 46.694-4.096 65.536zM611.942 363.622c-22.938 0-31.13 0-45.875 0-15.565 0-28.672 0.819-37.683 1.638 1.638 8.192 3.277 16.384 5.734 25.395 1.638 6.554 3.277 13.107 4.915 18.842 16.384-7.373 32.768-14.746 50.79-22.118 22.118-9.011 43.418-16.384 63.898-23.757-17.203 0-31.13 0-41.779 0zM302.285 550.4c-13.107 14.746-13.926 42.598 2.458 56.525 13.926 12.288 34.406 8.192 49.971 3.277 12.288-4.096 80.282-27.853 80.282-42.598 0.819-36.045-81.92 9.011-92.57 13.926-19.661 9.83-36.045-20.48-16.384-30.31 13.926-7.373 38.502-20.48 63.898-28.672-5.734-2.458-10.65-5.734-16.384-9.011-21.299 9.83-54.067 18.842-71.27 36.864z" />
<glyph unicode="&#xe924;" glyph-name="add" d="M432.958 14.998v350.359h-350.318c-0.542-0.013-1.18-0.020-1.82-0.020-44.659 0-80.862 36.203-80.862 80.862s36.203 80.862 80.862 80.862c0.64 0 1.278-0.007 1.914-0.022l-0.095 0.002h350.359v350.318c-0.013 0.542-0.020 1.18-0.020 1.82 0 44.659 36.203 80.862 80.862 80.862s80.862-36.203 80.862-80.862c0-0.64-0.007-1.278-0.022-1.914l0.002 0.095v-350.318h350.318c43.869-1.019 79.042-36.822 79.042-80.841s-35.173-79.822-78.947-80.839l-0.095-0.002h-350.318v-350.359c-1.019-43.869-36.822-79.042-80.841-79.042s-79.822 35.173-80.839 78.947l-0.002 0.095z" />
<glyph unicode="&#xe925;" glyph-name="alarm" d="M783.974 71.999c-28.017 28.017-20.808 58.45 26.378 110.592 65.419 70.737 105.545 165.7 105.545 270.035 0 17.607-1.143 34.946-3.358 51.949l0.213-2.004c-14.124 85.456-51.431 160.431-105.175 220.362l0.359-0.407c-43.95 48.66-50.176 75.080-23.962 101.581 28.672 28.672 55.214 20.808 104.817-31.171 81.745-91.416 132.57-211.991 135.201-344.386l0.008-0.538c-2.027-133.126-53.323-253.894-136.409-345.227l0.381 0.425c-30.392-32.399-52.101-47.718-71.107-47.718-13.229 0.814-24.864 7.026-32.835 16.439l-0.056 0.068zM136.028 103.211c-82.705 90.907-134.002 211.675-136.023 344.392l-0.005 0.409c2.681 132.88 53.482 253.401 135.623 345.319l-0.455-0.518c49.644 51.978 76.063 59.965 104.858 31.293 26.419-26.378 19.988-52.797-23.962-101.581-53.389-59.579-90.695-134.608-104.47-217.589l-0.347-2.53c-2.007-15.015-3.153-32.374-3.153-50 0-104.319 40.13-199.265 105.794-270.243l-0.241 0.263c47.186-51.978 54.395-82.412 26.378-110.592-8.018-9.407-19.602-15.568-32.635-16.377l-0.133-0.007c-19.128 0.082-40.837 15.401-71.229 47.759zM225.608 311.165c-19.445 31.97-30.955 70.626-30.955 111.971 0 8.505 0.487 16.896 1.435 25.147l-0.094-1.007c-0.831 7.265-1.305 15.685-1.305 24.215 0 38.557 9.686 74.851 26.758 106.582l-0.59-1.2c22.558 52.215 57.91 95.279 102.202 126.514l0.935 0.626c5.784 2.306 12.487 3.643 19.502 3.643 17.44 0 32.949-8.263 42.827-21.088l0.094-0.127c20.808-24.863 16.753-42.435-22.405-86.385-38.534-36.068-62.545-87.243-62.545-144.026 0-2.82 0.059-5.626 0.176-8.417l-0.013 0.399c-0.101-2.362-0.159-5.134-0.159-7.919 0-56.795 24.027-107.978 62.471-143.939l0.111-0.103c39.158-44.769 43.213-60.785 21.586-88.801-8.392-11.274-21.618-18.544-36.549-18.718h-0.028c-37.765 0-84.828 44.851-123.453 122.675zM638.403 207.249c-21.627 28.017-17.572 44.032 21.586 88.801 38.555 36.058 62.583 87.235 62.583 144.025 0 2.791-0.058 5.569-0.173 8.331l0.013-0.395c0.102 2.375 0.161 5.161 0.161 7.961 0 56.815-24.044 108.015-62.513 143.978l-0.112 0.104c-14.882 14.754-27.015 32.253-35.58 51.679l-0.424 1.077c1.37 22.589 14.883 41.727 34.047 51.082l0.36 0.159c6.243 2.363 13.46 3.731 20.997 3.731 4.459 0 8.805-0.479 12.992-1.388l-0.402 0.073c29.614-8.192 76.8-61.44 106.496-121.61 19.488-31.986 31.025-70.672 31.025-112.053 0-8.722-0.513-17.324-1.509-25.778l0.098 1.025c0.897-7.419 1.408-16.010 1.408-24.721 0-41.364-11.536-80.034-31.566-112.967l0.544 0.963c-38.625-77.824-86.016-122.88-123.453-122.88-14.974 0.189-28.204 7.491-36.489 18.676l-0.088 0.125zM423.199 359.211c-23.735 22.693-38.489 54.608-38.489 89.968 0 50.033 29.538 93.167 72.127 112.914l0.769 0.32c16.766 8.633 36.588 13.693 57.592 13.693 70.67 0 127.959-57.289 127.959-127.959s-57.289-127.959-127.959-127.959c-36.096 0-68.702 14.946-91.965 38.987l-0.034 0.035z" />
<glyph unicode="&#xe926;" glyph-name="arrow" d="M24.921 297.308l400.712 400.712c24.576 24.576 53.002 48.66 79.544 45.507 37.43-1.546 70.541-18.811 93.115-45.325l0.151-0.182 400.671-400.712c15.387-15.382 24.904-36.634 24.904-60.109 0-46.94-38.052-84.992-84.992-84.992-23.465 0-44.709 9.509-60.089 24.884l-366.919 366.838-366.92-366.838c-15.383-15.383-36.635-24.898-60.109-24.898-46.948 0-85.007 38.059-85.007 85.007 0 23.474 9.515 44.726 24.898 60.109v0z" />
<glyph unicode="&#xe927;" glyph-name="back" d="M328.829 100.276l-286.065 286.106c-4.301 4.301-8.602 8.765-12.575 13.353-14.647 11.184-24.003 28.655-24.003 48.311 0 0.022 0 0.044 0 0.066v-0.003c0 0.032 0 0.069 0 0.107 0 7.382 1.321 14.456 3.74 20.997l-0.136-0.419c0.796 2.421 1.711 4.493 2.799 6.455l-0.096-0.189c3.661 7.26 8.441 13.414 14.189 18.499l0.065 0.056c4.997 5.284 10.527 10.65 16.015 16.179l286.065 286.106c10.998 11.026 26.206 17.847 43.008 17.847s32.010-6.821 43.007-17.846l0.001-0.001c11.046-10.989 17.881-26.2 17.881-43.008s-6.836-32.019-17.879-43.005l-201.239-201.28h743.506c33.511 0 60.679-27.154 60.703-60.66v-0.002c0-33.525-27.178-60.703-60.703-60.703v0h-743.506l201.236-201.236c11.036-10.993 17.864-26.203 17.864-43.008s-6.829-32.015-17.862-43.006l-0.002-0.002c-10.956-10.958-26.092-17.736-42.812-17.736-0.040 0-0.080 0-0.121 0h0.006c-16.859 0.002-32.108 6.895-43.084 18.016l-0.006 0.007z" />
<glyph unicode="&#xe928;" glyph-name="calories" d="M213.448 28.491c61.872-50.117 139.195-83.481 223.835-92.133l1.814-0.15c1.068-0.133 2.304-0.209 3.558-0.209 16.763 0 30.351 13.589 30.351 30.351 0 7.617-2.806 14.578-7.44 19.907l0.031-0.037c-21.914 25.354-92.406 115.876-78.971 216.883 10.438 59.463 42.185 110.107 86.919 144.807l0.53 0.396c16.033-58.357 45.268-108.578 84.399-149.202l-0.103 0.107c31.489-28.201 52.45-67.595 56.596-111.875l0.052-0.683c0.11-2.452 0.173-5.327 0.173-8.217 0-31.042-7.262-60.387-20.18-86.43l0.509 1.135c-2.366-4.221-3.759-9.263-3.759-14.63 0-16.763 13.589-30.351 30.351-30.351 2.734 0 5.383 0.361 7.903 1.039l-0.212-0.049c72.723 18.304 135.444 54.019 185.756 102.52l-0.125-0.12c52.526 51.989 87.684 121.438 96.046 198.916l0.128 1.46c20.48 172.401-52.306 345.866-210.371 501.637-70.959 69.641-151.1 130.315-238.342 179.944l-5.698 2.984-44.524 23.511v-50.34c0-226.263-84.296-305.111-165.806-381.379-69.386-64.922-141.107-132.055-137.748-280.412 0.982-88.075 41.155-166.573 103.868-219.010l0.457-0.372zM288.364 483.925c109.97 88.734 180.537 222.494 183.452 372.826l0.007 0.483c114.688-72.499 415.662-293.929 379.535-598.385-12.779-106.678-83.242-194.226-178.866-231.338l-1.932-0.66c3.313 17.385 5.208 37.382 5.208 57.821 0 0.696-0.002 1.392-0.007 2.087l0.001-0.107c-3.619 60.076-30.159 113.33-70.907 151.648l-0.117 0.109c-44.176 42.654-72.974 100.982-77.412 166.001l-0.043 0.788-2.662 53.78-44.646-30.106c-79.367-46.314-136.077-124.082-153.293-215.777l-0.307-1.966c-0.931-9.141-1.462-19.753-1.462-30.49 0-62.61 18.061-121.001 49.256-170.249l-0.772 1.304c-103.342 31.334-200.704 105.595-203.612 237.568-2.703 121.16 50.831 171.254 118.579 234.66z" />
<glyph unicode="&#xe929;" glyph-name="cardio" d="M1023.823 437.393c1.27-36.291-15.319-46.285-31.744-46.285h-243.671c-10.79 0.005-20.23 5.78-25.402 14.406l-0.075 0.134-28.959 39.404-74.957-106.496c-5.411-8.202-14.585-13.539-25.005-13.539-12.763 0-23.656 8.008-27.929 19.273l-0.068 0.205-73.155 171.745-49.152-105.923c-4.344-11.432-15.207-19.41-27.934-19.415h-142.869c-16.384 0-36.086 26.419-36.086 42.762 2.35 19.348 17.013 34.678 35.821 38.013l0.264 0.039h105.021l78.479 166.789c7.801 11.767 20.988 19.419 35.962 19.419 0.216 0 0.432-0.002 0.648-0.005h-0.033c0.13 0.002 0.283 0.003 0.436 0.003 13.803 0 25.785-7.794 31.787-19.221l0.094-0.197 80.159-166.748 52.716 74.22c7.505 10.718 19.13 18.11 32.528 19.881l0.24 0.026c13.57-3.714 24.79-12.070 32.106-23.219l0.13-0.211 42.926-70.697h108.913c13.639 11.343 23.703 26.557 28.527 43.95l0.145 0.615c7.323 20.099 11.558 43.301 11.558 67.493 0 0.622-0.003 1.244-0.008 1.865l0.001-0.095c0.012 0.793 0.018 1.73 0.018 2.668 0 73.773-40.708 138.038-100.887 171.557l-0.999 0.511c-26.494 22.058-60.883 35.447-98.398 35.447-0.802 0-1.603-0.006-2.402-0.018l0.121 0.001c-69.674-1.353-133.088-27.086-182.313-68.989l0.409 0.34c-7.757-8.282-18.085-14.071-29.706-16.092l-0.318-0.046c-12.242 1.961-22.873 7.766-30.865 16.118l-0.019 0.020c-40.381 49.237-101.22 80.406-169.339 80.406-41.318 0-79.958-11.467-112.91-31.393l0.977 0.548c-66.306-34.126-110.873-102.089-110.873-180.462 0-3.749 0.102-7.474 0.303-11.172l-0.022 0.515c-0.001-0.257-0.002-0.561-0.002-0.866 0-24.487 4.155-48.003 11.8-69.883l-0.452 1.485c38.298-171.418 336.527-360.448 411.361-409.6 110.396 68.951 206.122 145.533 292.069 231.858l0.058 0.058c10.271 7.409 23.111 11.85 36.988 11.85 9.721 0 18.933-2.179 27.174-6.075l-0.387 0.165c5.445-7.455 8.713-16.801 8.713-26.911s-3.267-19.456-8.803-27.041l0.091 0.13c-100.683-100.719-211.982-190.814-332.078-268.465l-7.89-4.779c-4.511-2.86-10.001-4.566-15.887-4.588h-0.006c-0.039 0-0.086 0-0.133 0-5.822 0-11.244 1.711-15.791 4.657l0.114-0.069c-17.326 10.895-423.076 267.878-471.040 482.714-8.754 26.108-13.805 56.171-13.805 87.414 0 0.358 0.001 0.716 0.002 1.074v-0.055c0.064 110.949 61.080 207.632 151.374 258.385l1.489 0.769c41.145 22.263 90.071 35.349 142.054 35.349 63.725 0 122.857-19.665 171.658-53.258l-1.023 0.665c44.687-26.993 24.986-29.409 59.72-8.438 50.034 37.99 113.36 60.858 182.028 60.858 51.661 0 100.298-12.944 142.847-35.764l-1.618 0.793c91.799-51.57 152.823-148.288 152.904-259.266v-0.011c0-0.023 0-0.051 0-0.079 0-32.608-5.367-63.963-15.265-93.23l0.602 2.049c-3.202-9.82-7.455-18.353-12.758-26.112l0.225 0.348h17.94c17.425-2.155 30.875-16.551 31.537-34.218l0.002-0.065z" />
<glyph unicode="&#xe92a;" glyph-name="delete" d="M884.286 960.001h-744.776c-25.658-0.023-46.449-20.828-46.449-46.49v0-139.674c0-0.024 0-0.053 0-0.082 0-25.684 20.809-46.507 46.487-46.531h0.002l46.612-744.735c0-0.012 0-0.027 0-0.041 0-25.638 20.772-46.425 46.405-46.449h558.656c0.037 0 0.080 0 0.123 0 25.675 0 46.49 20.814 46.49 46.49 0 0 0 0 0 0v0l46.49 744.735c0.012 0 0.027 0 0.041 0 25.721 0 46.572 20.851 46.572 46.572 0 0.014 0 0.029 0 0.043v-0.002 139.674c-0.116 25.686-20.954 46.467-46.651 46.49h-0.002zM744.572 29.103h-465.347l-46.653 698.122h558.572zM837.756 820.368h-651.633v46.531h651.592v-46.531zM418.858 75.552c0.012 0 0.027 0 0.041 0 25.721 0 46.572 20.851 46.572 46.572 0 0.014 0 0.029 0 0.043v-0.002 512c0.013 0.411 0.020 0.895 0.020 1.381 0 25.721-20.851 46.572-46.572 46.572s-46.572-20.851-46.572-46.572c0-0.486 0.007-0.969 0.022-1.452l-0.002 0.071v-512c0-0.024 0-0.053 0-0.082 0-25.684 20.809-46.507 46.487-46.531h0.002zM605.021 75.552c0.012 0 0.027 0 0.041 0 25.721 0 46.572 20.851 46.572 46.572 0 0.014 0 0.029 0 0.043v-0.002 512c0.013 0.411 0.020 0.895 0.020 1.381 0 25.721-20.851 46.572-46.572 46.572s-46.572-20.851-46.572-46.572c0-0.486 0.007-0.969 0.022-1.452l-0.002 0.071v-512c0-0.024 0-0.053 0-0.082 0-25.684 20.809-46.507 46.487-46.531h0.002z" />
<glyph unicode="&#xe92b;" glyph-name="edit" d="M957.794 893.735c-40.876 40.896-97.356 66.192-159.744 66.192s-118.868-25.296-159.743-66.192l-586.302-585.893c-4.347-4.409-7.309-10.194-8.175-16.643l-0.017-0.151-43.54-321.659c-0.175-1.201-0.274-2.587-0.274-3.996 0-8.026 3.233-15.297 8.469-20.582l-0.002 0.002c5.314-5.311 12.623-8.626 20.707-8.724h0.019c0.259-0.010 0.563-0.016 0.868-0.016 1.138 0 2.258 0.080 3.354 0.235l-0.126-0.015 317.727 43.213-85.524 89.743-169.656-37.274 27.402 163.226 206.971-206.971c5.314-5.311 12.623-8.626 20.707-8.724h0.019c0.013 0 0.028 0 0.044 0 8.106 0 15.432 3.34 20.676 8.718l586.103 585.734c40.926 40.862 66.243 97.346 66.243 159.744s-25.318 118.882-66.241 159.741l-0.003 0.003zM651.904 775.401l53.494-53.453-484.229-484.393-53.658 53.494zM344.049 114.553l-56.156 56.074 484.393 484.393 56.115-56.115zM892.258 662.761l-176.497 176.497c25.196 14.968 55.548 23.815 87.966 23.815 1.59 0 3.175-0.021 4.755-0.064l-0.233 0.005c30.147-7.544 56.245-21.943 77.544-41.487l-0.13 0.118c18.252-18.078 30.489-42.201 33.459-69.114l0.046-0.518c-1.11-33.179-10.98-63.838-27.354-90.012l0.443 0.76z" />
<glyph unicode="&#xe92c;" glyph-name="c_1a" d="M507.904 763.392c49.971 0 90.112-40.141 90.112-90.112s-40.141-90.112-90.112-90.112-90.112 40.141-90.112 90.112 40.141 90.112 90.112 90.112zM458.752 673.28c0-27.034 22.118-49.152 49.152-49.152s49.152 22.118 49.152 49.152-22.118 49.152-49.152 49.152c-27.034 0-49.152-22.118-49.152-49.152zM565.248 493.056l24.576-163.84c4.915-45.056 81.92-237.568 81.92-237.568 7.373-42.598-16.384-40.96-16.384-40.96-31.13-5.734-40.96 24.576-40.96 24.576l-73.728 204.8c-28.672 113.869-65.536 0-65.536 0-17.203-104.858-81.92-229.376-81.92-229.376-36.045-34.406-40.96 16.384-40.96 16.384 11.469 45.875 49.152 147.456 49.152 147.456 39.322 111.411 40.96 278.528 40.96 278.528l-32.768 57.344c-8.192-21.299-24.576-196.608-24.576-196.608-26.214-122.88-73.728-270.336-73.728-270.336-15.565-70.451 32.768-90.112 32.768-90.112 67.174-21.299 98.304 40.96 98.304 40.96l73.728 212.992 65.536-204.8c59.802-82.739 114.688-32.768 114.688-32.768 54.886 36.864 0 155.648 0 155.648-66.355 108.134-98.304 385.024-98.304 385.024-10.65 13.926-32.768-57.344-32.768-57.344zM441.549 470.118c1.638 9.83 2.458 22.118 1.638 35.226-1.638 34.406-13.926 61.44-22.938 77.005-9.011 22.938-18.022 54.067-19.661 90.931 0 5.734-0.819 22.118 0.819 40.96 4.915 51.61 24.576 95.846 43.418 126.976 1.638 1.638 15.565 13.107 23.757 8.192 9.011-4.915 5.734-24.576 4.915-33.587-1.638-11.469-5.734-21.299-8.192-27.034-3.277-13.926-8.192-29.491-14.746-45.875-3.277-7.373-5.734-14.746-9.011-21.299 13.107 5.734 27.034 10.65 40.141 16.384 1.638 4.915 3.277 9.83 5.734 15.565 5.734 16.384 12.288 32.768 18.022 49.152 3.277 8.192 11.469 30.31 4.915 57.344-4.096 16.384-12.288 28.672-18.022 35.226-100.762 43.418-131.891-172.851-131.891-172.851-2.458-71.27 7.373-127.795 18.842-158.106s30.31-63.078 30.31-63.078c4.096-6.554 7.373-12.288 9.011-15.565 8.192-4.915 15.565-9.83 22.938-15.565zM602.112 488.141c9.83 21.299 18.842 45.875 27.034 72.909 18.022 62.259 23.757 118.784 24.576 163.021 0 0-31.13 217.088-133.53 172.851 0 0-37.683-35.226-8.192-90.931 3.277-8.192 7.373-18.022 10.65-28.672s5.734-20.48 7.373-29.491c13.926-9.83 27.034-19.661 40.96-29.491-0.819 7.373-1.638 14.746-2.458 22.938-3.277 21.299-9.011 40.141-14.746 55.706-12.288 27.853-13.926 50.79-4.915 56.525 1.638 1.638 6.554 3.277 16.384-0.819 4.915-6.554 10.65-13.926 14.746-21.299 25.395-42.598 31.949-85.197 32.768-115.507 0 0 13.107-51.61-33.587-172.851-5.734-9.83-13.107-27.034-13.926-49.971 0-15.565 2.458-27.853 5.734-36.045 9.83 9.83 20.48 20.48 31.13 31.13z" />
<glyph unicode="&#xe92d;" glyph-name="faq" d="M28.366-60.59c-14.623 6.382-24.731 20.569-25.082 37.157l-0.001 0.044v787.66c1.006 108.278 89.016 195.667 197.437 195.667 0.301 0 0.602-0.001 0.902-0.002h623.641c0.164 0 0.358 0.001 0.552 0.001 107.642 0 194.902-87.261 194.902-194.902 0-0.254 0-0.507-0.001-0.76v0.039-458.148c0.001-0.252 0.002-0.55 0.002-0.848 0-107.989-87.483-195.545-195.444-195.665h-527.858c-10.338 0-18.855 0-25.93 0.212s-15.846 0-19.109 0c-3.432-2.288-11.779-9.915-19.829-17.372-3.178-2.924-6.779-6.144-10.677-9.703l-149.312-136.093c-7.287-6.597-16.998-10.635-27.653-10.635-0.035 0-0.070 0-0.105 0h0.005c-0.065 0-0.142-0.001-0.218-0.001-5.864 0-11.44 1.232-16.484 3.451l0.263-0.103zM121.029 706.054v-572.335c101.349 74.529 119.187 84.994 160.752 86.35 6.694 0 40.76 0 50.42 0h466.791c63.555 0 99.697 73.215 99.697 136.813v349.341c0 63.555-36.142 135.584-99.697 135.584h-576.869c-63.725-0.297-101.053-72.114-101.053-135.711zM462.914 343.493c0.021 29.739 23.918 53.889 53.558 54.318h0.040c29.3-0.211 52.972-24.013 52.972-53.343 0-0.343-0.003-0.685-0.010-1.027l0.001 0.051c0-0.033 0-0.071 0-0.11 0-27.425-22.233-49.658-49.658-49.658-1.163 0-2.316 0.040-3.459 0.119l0.154-0.009c-0.41-0.012-0.892-0.018-1.377-0.018-27.95 0-50.773 21.949-52.174 49.551l-0.005 0.125zM457.617 463.104c-0.424 53.725 26.736 70.038 58.259 96.519 17.965 12.711 36.565 16.101 43.345 44.828 1.695 22.032-10.169 46.607-32.201 46.607s-36.396-19.533-36.396-46.607-35.252-44.828-62.665-44.828-49.361 32.371-49.361 59.784c0.168 81.833 66.462 148.127 148.279 148.295h0.016c81.901 0 148.295-66.394 148.295-148.295v0c-5.1-52.527-33.985-97.391-75.608-124.172l-0.658-0.396c-11.782-9.496-20.832-21.93-26.084-36.2l-0.186-0.577c-0.622-27.248-22.857-49.098-50.196-49.098-2.696 0-5.343 0.213-7.924 0.622l0.285-0.037h-2.034c-0.788-0.042-1.711-0.066-2.64-0.066-28.993 0-52.497 23.503-52.497 52.497 0 0.411 0.005 0.82 0.014 1.229l-0.001-0.061z" />
<glyph unicode="&#xe92e;" glyph-name="facebook" d="M481.189 959.078c-70.205-4.376-135.268-22.209-194.028-50.941l3.032 1.339c-142.561-69.86-246.444-199.871-279.331-356.037l-0.59-3.346c-6.517-30.67-10.249-65.909-10.249-102.020 0-80.969 18.764-157.556 52.18-225.649l-1.339 3.020c69.879-142.25 199.737-245.872 355.675-278.637l3.339-0.587c30.652-6.51 65.871-10.237 101.96-10.237 80.992 0 157.6 18.774 225.707 52.208l-3.019-1.339c104.516 51.476 187.116 134.076 237.247 235.579l1.345 3.013c22.508 45.409 38.87 98.143 46.249 153.713l0.281 2.59c2.757 19.948 4.33 42.998 4.33 66.415 0 80.877-18.772 157.37-52.197 225.359l1.336-3.006c-51.476 104.516-134.076 187.116-235.579 237.247l-3.013 1.345c-64.988 32.119-141.493 50.909-222.386 50.909-10.889 0-21.698-0.34-32.418-1.011l1.467 0.073zM690.085 680.345l-0.369-55.828-54.313-0.573c-61.44-0.696-57.631 0-64.225-10.404s-7.209-14.418-7.209-58.327v-39.895h126.321v-105.062h-126.321v-314.040h-121.61v314.040h-108.626v105.062h108.626v37.888c-0.357 4.782-0.56 10.358-0.56 15.982 0 20.154 2.61 39.698 7.51 58.314l-0.356-1.592c13.933 50.143 51.747 89.161 100.1 104.523l1.071 0.294c18.049 3.953 38.781 6.218 60.043 6.218 8.58 0 17.074-0.369 25.467-1.091l-1.091 0.076h55.706z" />
<glyph unicode="&#xe92f;" glyph-name="height" d="M405.254-64.021c-22.622 0-40.962 18.339-40.962 40.962v0 36.251c0 22.622 18.339 40.962 40.962 40.962v0h390.692c22.622 0 40.962-18.339 40.962-40.962v0-36.251c0-22.622-18.339-40.962-40.962-40.962v0zM228.054-64.021c-22.622 0-40.962 18.339-40.962 40.962v0 942.118c0 22.622 18.339 40.962 40.962 40.962v0h36.251c22.622 0 40.962-18.339 40.962-40.962v0-942.118c0-22.622-18.339-40.962-40.962-40.962v0zM405.254 172.328c-22.622 0-40.962 18.339-40.962 40.962v0 36.251c0 22.622 18.339 40.962 40.962 40.962v0h233.154c22.622 0 40.962-18.339 40.962-40.962v0-36.251c0-22.622-18.339-40.962-40.962-40.962v0zM405.254 408.635c-22.622 0-40.962 18.339-40.962 40.962v0 36.251c0 22.622 18.339 40.962 40.962 40.962v0h390.692c22.622 0 40.962-18.339 40.962-40.962v0-36.251c0-22.622-18.339-40.962-40.962-40.962v0zM405.254 625.241c-22.622 0-40.962 18.339-40.962 40.962v0 36.251c0 22.622 18.339 40.962 40.962 40.962v0h233.154c22.622 0 40.962-18.339 40.962-40.962v0-36.251c0-22.622-18.339-40.962-40.962-40.962v0zM405.254 841.846c-22.622 0-40.962 18.339-40.962 40.962v0 36.251c0 22.622 18.339 40.962 40.962 40.962v0h390.692c22.622 0 40.962-18.339 40.962-40.962v0-36.251c0-22.622-18.339-40.962-40.962-40.962v0z" />
<glyph unicode="&#xe930;" glyph-name="pause" d="M387.87 878.080v-860.16c0-45.243-36.677-81.92-81.92-81.92h-115.425c-45.243 0-81.92 36.677-81.92 81.92v860.16c0 45.243 36.677 81.92 81.92 81.92h115.425c45.243 0 81.92-36.677 81.92-81.92zM915.394 878.080v-860.16c0-45.243-36.677-81.92-81.92-81.92h-115.425c-45.243 0-81.92 36.677-81.92 81.92v860.16c0 45.243 36.677 81.92 81.92 81.92h115.425c45.243 0 81.92-36.677 81.92-81.92z" />
<glyph unicode="&#xe931;" glyph-name="question" d="M430.265 23.143c0 0.012 0 0.027 0 0.041 0 48.139 39.024 87.163 87.163 87.163v0c48.139 0 87.163-39.024 87.163-87.163 0-0.014 0-0.029 0-0.043v0.002c0-48.139-39.024-87.163-87.163-87.163v0c-48.139 0-87.163 39.024-87.163 87.163v0zM452.055 349.963c39.936 167.035 207.094 190.423 207.094 342.016 0 83.436-55.542 132.915-148.357 132.915-197.919 0-87.818-213.484-225.772-202.588-65.536 10.895-69.018 43.5-69.018 105.308 25.436 123.453 106.127 232.407 294.912 232.407 197.878 0 297.083-76.145 297.083-294.134 0-201.032-134.39-210.616-199.721-315.884-37.11-54.026 4.669-119.849-97.362-119.849-66.601-0.041-58.982 70.328-58.982 119.808z" />
<glyph unicode="&#xe932;" glyph-name="setting" d="M1018.591 387.873c2.74 3.725 4.656 8.223 5.387 13.107l0.020 0.164v95.519c-0.909 4.697-2.817 8.84-5.5 12.36l0.053-0.072c-2.825 2.807-6.433 4.828-10.468 5.709l-0.141 0.026-122.266 20.48c-10.35 43.766-26.877 82.344-48.886 117.107l0.922-1.559 71.311 99.492c2.379 3.735 3.954 8.2 4.375 12.996l0.008 0.111c-0.312 4.456-1.926 8.484-4.461 11.765l0.037-0.050-69.632 69.632c-3.136 3.348-7.408 5.599-12.198 6.136l-0.090 0.008c-5.209-0.782-9.788-3.039-13.415-6.327l0.021 0.019-99-70.82c-33.211 21.044-71.78 37.577-112.934 47.474l-2.614 0.531-19.988 119.603c-0.625 5.027-2.936 9.425-6.341 12.691l-0.007 0.007c-4.456 3.044-9.787 5.152-15.542 5.919l-0.186 0.020h-92.692c-5.174-0.364-9.779-2.545-13.235-5.903l0.005 0.005c-3.37-4.613-5.766-10.15-6.768-16.159l-0.031-0.225-19.374-116.122c-43.762-10.388-82.333-26.867-117.141-48.777l1.593 0.936-94.208 67.133c-5.349 3.289-11.571 5.825-18.202 7.26l-0.393 0.071c-6.23-0.393-11.755-3.126-15.761-7.323l-59.278-59.319c-3.599-5.706-5.734-12.648-5.734-20.088 0-0.023 0-0.045 0-0.068v0.004c1.031-8.544 3.731-16.28 7.77-23.133l-0.151 0.277 62.833-87.941c-21.084-33.205-37.598-71.785-47.404-112.966l-0.519-2.582-112.599-18.76c-6.828-0.283-13.010-2.836-17.863-6.918l0.045 0.037c-4.171-5.194-7.016-11.62-7.926-18.652l-0.020-0.189v-84.091c1.678-7.039 4.418-13.237 8.081-18.771l-0.134 0.216c3.025-3.75 7.288-6.394 12.161-7.312l0.127-0.020 117.883-19.661c10.335-43.764 26.849-82.343 48.845-117.108l-0.922 1.56-70.369-98.304c-3.001-3.494-5.14-7.813-6.036-12.57l-0.026-0.169c0.022-4.631 1.557-8.9 4.135-12.342l-0.039 0.054 68.731-68.731c4.132-3.53 9.363-5.888 15.114-6.502l0.123-0.011c5.843 0.709 11.016 3.148 15.101 6.783l-0.028-0.024 96.42 68.813c33.193-21.074 71.759-37.587 112.922-47.403l2.585-0.52 19.988-119.849c1.343-5.34 3.956-9.947 7.506-13.65l-0.010 0.011c3.825-2.841 8.587-4.622 13.755-4.832l0.049-0.002h92.774c0.141-0.003 0.307-0.005 0.473-0.005 5.356 0 10.303 1.754 14.296 4.72l-0.064-0.046c3.244 3.941 5.364 8.916 5.81 14.366l0.006 0.093 19.825 119.030c43.764 10.35 82.341 26.862 117.114 48.847l-1.565-0.924 97.321-69.632c4.67-3.382 10.286-5.758 16.377-6.691l0.212-0.027c4.922 0.352 9.216 2.775 12.056 6.394l0.028 0.036 68.813 65.905c2.58 4.009 4.113 8.904 4.113 14.157 0 0.337-0.006 0.672-0.019 1.005l0.001-0.048c-1.221 6.171-3.743 11.609-7.278 16.232l0.069-0.094-68.403 95.724c21.075 33.206 37.601 71.783 47.441 112.955l0.523 2.593 121.078 20.193c4.606 1.31 8.538 3.745 11.622 6.993l0.010 0.011zM511.998 191.92c-141.385 0-256 114.615-256 256s114.615 256 256 256c141.385 0 256-114.615 256-256v0c0-141.385-114.615-256-256-256v0z" />
<glyph unicode="&#xe933;" glyph-name="setup" d="M179.097 34.468h-120.054c-32.62 0-59.064 26.444-59.064 59.064s26.444 59.064 59.064 59.064h120.013c22.359 44.682 67.778 74.823 120.238 74.823s97.88-30.141 119.887-74.050l0.351-0.773h545.382c32.62 0 59.064-26.444 59.064-59.064s-26.444-59.064-59.064-59.064h-545.341c-22.338-44.709-67.765-74.874-120.238-74.874s-97.9 30.165-119.887 74.1l-0.351 0.774zM604.508 388.936h-545.464c-32.643 0-59.105 26.462-59.105 59.105s26.462 59.105 59.105 59.105h545.464c22.353 44.663 67.757 74.791 120.197 74.791s97.844-30.128 119.846-74.018l0.351-0.773h120.054c32.643 0 59.105-26.462 59.105-59.105s-26.462-59.105-59.105-59.105h-120.054c-22.332-44.691-67.744-74.843-120.197-74.843s-97.865 30.152-119.846 74.069l-0.351 0.774zM179.097 743.444h-120.054c-32.261 0.823-58.2 26.762-59.022 58.946l-0.002 0.077c0.8 32.288 26.743 58.259 58.944 59.104l0.079 0.002h120.054c22.345 44.686 67.761 74.833 120.218 74.833s97.872-30.146 119.867-74.059l0.351-0.773h545.382c32.307-0.823 58.282-26.799 59.104-59.028l0.002-0.077c-0.846-32.28-26.818-58.223-59.030-59.022l-0.075-0.001h-545.341c-22.359-44.682-67.778-74.823-120.238-74.823s-97.88 30.141-119.887 74.050l-0.351 0.773z" />
<glyph unicode="&#xe934;" glyph-name="sound" d="M781.926 68.301c-28.221 28.221-20.972 58.86 26.624 111.329 65.971 71.339 106.435 167.108 106.435 272.328 0 17.766-1.154 35.262-3.39 52.418l0.215-2.023c-14.234 86.198-51.848 161.83-106.041 222.293l0.364-0.413c-44.36 49.152-50.79 75.858-24.166 102.4 29.041 29.041 55.665 20.972 105.677-31.498 82.416-92.168 133.668-213.726 136.347-347.203l0.009-0.547c-2.061-134.26-53.786-256.054-137.561-348.181l0.386 0.431c-30.638-32.768-52.511-48.087-71.68-48.087-13.372 0.843-25.125 7.145-33.16 16.682l-0.058 0.071zM425.042 64.983l-194.314 145.531h-177.48c-29.408 0-53.248 23.84-53.248 53.248v0 370.975c0 29.408 23.84 53.248 53.248 53.248v0h177.48l194.314 145.572c8.69 6.795 19.773 10.895 31.814 10.895 0.004 0 0.008 0 0.012 0h-0.001c29.439-0.209 53.225-24.111 53.248-53.574v-683.338c0.004-0.244 0.006-0.532 0.006-0.82 0-29.137-23.62-52.756-52.756-52.756-0.089 0-0.177 0-0.266 0.001h0.014c-12.143 0.111-23.295 4.27-32.192 11.19l0.12-0.090zM115.548 570.757c-2.984-5.107-4.746-11.243-4.746-17.791 0-2.4 0.237-4.745 0.688-7.012l-0.038 0.228c0-2.785 0-5.53 0-8.192v-185.508c-0.104-0.868-0.163-1.873-0.163-2.893 0-14.252 11.553-25.805 25.805-25.805 0.403 0 0.804 0.009 1.202 0.028l-0.057-0.002h122.429l116.695-86.016c3.631-3.206 8.148-5.491 13.138-6.444l0.174-0.028c0.055-0.003 0.119-0.004 0.184-0.004 1.148 0 2.185 0.472 2.928 1.232l0.001 0.001c2.867 2.867 2.785 10.854 2.744 21.873v0.492c0 1.884 0 3.85 0 5.898v381.747c0 10.486 0 16.835-2.171 19.128-0.573 0.582-1.369 0.943-2.249 0.943-0.030 0-0.060 0-0.090-0.001h0.004c-5.694-1.428-10.614-4.182-14.599-7.922l0.018 0.016-116.695-80.282h-135.823c-0.175 0.009-0.381 0.014-0.587 0.014-3.429 0-6.536-1.382-8.794-3.619l0.001 0.001zM635.085 204.657c-21.791 28.221-17.736 44.401 21.791 89.539 38.861 36.376 63.076 87.985 63.076 145.251 0 2.821-0.059 5.628-0.175 8.42l0.013-0.399c0.104 2.4 0.163 5.215 0.163 8.044 0 57.272-24.216 108.888-62.967 145.167l-0.111 0.103c-15.006 14.884-27.225 32.55-35.825 52.163l-0.424 1.085c1.421 22.759 15.033 42.035 34.331 51.49l0.362 0.16c6.285 2.376 13.551 3.751 21.139 3.751 4.51 0 8.907-0.486 13.141-1.408l-0.406 0.074c29.819-8.192 77.455-62.095 107.315-122.593 22.035-33.764 35.142-75.099 35.142-119.495 0-6.512-0.282-12.958-0.834-19.327l0.058 0.827c0.493-5.533 0.775-11.971 0.775-18.473 0-44.391-13.106-85.72-35.66-120.33l0.52 0.85c-38.953-78.52-86.548-123.74-124.477-123.74-15.13 0.158-28.51 7.513-36.898 18.799l-0.088 0.124z" />
</font>
</defs>
</svg>
